<svg width="320" height="200" viewBox="0 0 320 200" fill="none" xmlns="http://www.w3.org/2000/svg">
<rect width="320" height="200" rx="5" fill="#1E1E1E"/>
<path d="M160.499 134C159.188 134 157.882 133.954 156.616 133.866C155.31 133.777 153.999 133.639 152.721 133.458C152.159 133.38 151.65 133.302 151.165 133.22C149.725 132.977 148.259 132.67 146.808 132.304C146.31 132.18 145.825 132.05 145.364 131.916C145.201 131.872 145.035 131.825 144.871 131.777C144.171 131.573 143.492 131.361 142.858 131.147C142.817 131.136 142.769 131.119 142.721 131.103C142.15 130.913 141.552 130.701 140.947 130.474C140.437 130.283 139.92 130.081 139.369 129.855C137.569 129.121 135.777 128.275 134.042 127.344C124.836 122.398 117.079 114.958 111.602 105.828C105.976 96.4355 103 85.6028 103 74.499C103 58.6058 108.982 43.6628 119.841 32.4255C130.7 21.1882 145.141 15 160.499 15C175.858 15 190.298 21.1882 201.159 32.4255C212.02 43.6628 218 58.6058 218 74.499C218 83.8377 215.968 92.7775 211.963 101.069C208.142 108.976 202.549 116.034 195.786 121.479C192.56 124.076 189.068 126.32 185.4 128.144C184.985 128.352 184.541 128.564 184.006 128.814L183.947 128.84C183.883 128.871 183.82 128.899 183.755 128.928C183.353 129.113 182.944 129.294 182.54 129.466L182.358 129.546C182.249 129.594 182.14 129.64 182.029 129.684C180.547 130.304 179.026 130.867 177.504 131.35C176.376 131.712 175.194 132.048 173.99 132.348C169.603 133.443 165.063 133.998 160.499 133.998V134ZM160.499 15.3874C145.238 15.3874 130.892 21.5355 120.103 32.7022C109.312 43.8613 103.369 58.7069 103.369 74.499C103.369 85.5322 106.327 96.2943 111.919 105.623C117.359 114.695 125.069 122.089 134.215 127.003C135.939 127.928 137.72 128.768 139.509 129.499C140.057 129.724 140.569 129.924 141.076 130.113C141.679 130.338 142.271 130.548 142.841 130.739C142.885 130.754 142.928 130.768 142.97 130.781C143.605 130.995 144.278 131.205 144.975 131.409C145.137 131.456 145.299 131.504 145.461 131.548C145.921 131.68 146.402 131.809 146.896 131.933C148.338 132.298 149.793 132.603 151.226 132.844C151.707 132.926 152.212 133.004 152.771 133.082C154.04 133.262 155.341 133.399 156.64 133.487C157.897 133.574 159.195 133.62 160.497 133.62C165.032 133.62 169.542 133.069 173.903 131.981C175.1 131.683 176.274 131.35 177.395 130.991C178.906 130.51 180.42 129.953 181.893 129.334C182.004 129.291 182.109 129.245 182.214 129.199L182.431 129.104C182.82 128.938 183.215 128.762 183.606 128.583C183.672 128.554 183.733 128.525 183.794 128.497L183.853 128.47C184.384 128.222 184.825 128.01 185.238 127.804C188.882 125.991 192.354 123.763 195.557 121.181C202.276 115.769 207.834 108.757 211.631 100.901C215.61 92.663 217.629 83.7804 217.629 74.501C217.629 58.7088 211.686 43.8632 200.895 32.6984C190.108 21.5298 175.76 15.3816 160.499 15.3816V15.3874Z" fill="#DDDEDF"/>
<path d="M155.277 48.9351C155.277 48.9351 145.177 50.1144 144.526 66.2977C143.984 79.7828 142.874 87.2991 148.176 90.1118C150.071 91.1174 152.299 91.2052 154.324 90.5183L175.966 83.1546C175.966 83.1546 176.293 58.8806 168.799 52.9805C161.305 47.0804 155.279 48.9351 155.279 48.9351H155.277Z" fill="#2F2E41"/>
<path d="M167.207 86.1352L156.254 89.8618V73.5469H166.191L167.207 86.1352Z" fill="#AD6359"/>
<path d="M181.963 129.508C180.488 130.126 178.983 130.682 177.451 131.17C176.298 131.54 175.129 131.87 173.947 132.164C169.634 133.241 165.129 133.809 160.499 133.809C159.197 133.809 157.906 133.765 156.629 133.676C155.321 133.586 154.027 133.45 152.747 133.269C152.227 133.197 151.711 133.118 151.196 133.031C149.73 132.784 148.281 132.477 146.854 132.117C146.372 131.996 145.893 131.869 145.415 131.731C145.251 131.687 145.087 131.64 144.925 131.592C144.252 131.395 143.582 131.187 142.919 130.964C142.874 130.951 142.828 130.935 142.784 130.92C142.19 130.722 141.6 130.512 141.014 130.292C140.486 130.096 139.963 129.89 139.441 129.676L150.82 90.919L151.294 89.3065L152.976 83.5801L152.989 83.5343L153.001 83.4923H172.874L173.007 84.1621L176.265 100.656L178.613 112.544L180.921 124.228L181.871 129.037L181.963 129.508Z" fill="#F2EDD5"/>
<path d="M156.136 83.5018L154.799 89.2321L154.613 90.0355L154.515 90.4533L148.585 115.891L144.925 131.592C144.252 131.395 143.582 131.187 142.919 130.964C142.874 130.951 142.828 130.935 142.784 130.92C142.19 130.722 141.6 130.512 141.014 130.292C140.486 130.096 139.963 129.89 139.441 129.676C137.623 128.934 135.851 128.096 134.13 127.172C137.971 107.499 141.827 88.1559 142.454 86.5358C142.729 85.8241 143.498 85.2784 144.539 84.8586C144.84 84.7364 145.165 84.6258 145.506 84.5246C147.742 83.8644 150.728 83.6221 152.966 83.5362H152.989C153.881 83.5037 154.654 83.4942 155.211 83.4942C155.767 83.4942 156.136 83.5037 156.136 83.5037V83.5018Z" fill="#F2EDD5"/>
<path d="M157.61 78.0636C163.637 78.0636 168.524 73.0068 168.524 66.769C168.524 60.5312 163.637 55.4745 157.61 55.4745C151.582 55.4745 146.695 60.5312 146.695 66.769C146.695 73.0068 151.582 78.0636 157.61 78.0636Z" fill="#AD6359"/>
<path d="M154.626 53.1503C154.626 53.1503 148.62 78.386 155.299 90.1862L145.891 88.1178C145.891 88.1178 142.245 60.4949 149.577 55.4745L154.628 53.1503H154.626Z" fill="#2F2E41"/>
<path opacity="0.1" d="M152.747 133.269C152.227 133.197 151.711 133.118 151.196 133.031C149.73 132.784 148.281 132.477 146.854 132.117C146.372 131.996 145.893 131.869 145.415 131.731L146.029 126.858L147.669 113.838L148.406 116.658L149.085 119.255L152.747 133.269Z" fill="#272223"/>
<path opacity="0.1" d="M183.683 128.754C183.281 128.94 182.878 129.119 182.47 129.293C182.409 129.319 182.348 129.346 182.288 129.373C182.181 129.418 182.074 129.464 181.965 129.508C180.49 130.126 178.985 130.682 177.453 131.17C173.813 128.504 171.008 124.791 169.389 120.49L168.526 118.198L162.998 101.628L175.245 114.926L177.484 118.593L180.923 124.226L183.685 128.753H183.683V128.754Z" fill="#272223"/>
<path d="M195.673 121.33C192.476 123.906 189.009 126.138 185.321 127.974C184.862 128.203 184.397 128.424 183.931 128.642C183.848 128.68 183.766 128.718 183.683 128.754C183.281 128.94 182.878 129.119 182.47 129.293C182.269 129.212 182.07 129.126 181.873 129.037C179.85 128.121 178.043 126.728 176.448 125.1C174.305 122.908 172.55 120.286 171.172 117.809C170.493 116.59 169.907 115.405 169.411 114.325L169.404 114.308C168.067 111.382 167.405 109.23 167.405 109.23L165.625 101.668L165.137 99.5936L162.356 87.7857L161.345 83.4923L162.854 83.4236L166.975 83.2366L171.521 83.0286C172.568 83.1107 173.59 83.3129 174.572 83.6297C177.727 84.6315 180.471 86.7725 182.273 89.7187C187.226 97.8228 195.157 112.117 195.675 121.33H195.673Z" fill="#F2EDD5"/>
<path d="M143.887 78.2314C146.278 77.3403 152.609 77.3365 155.448 78.3287C156 78.5215 156.334 79.1015 156.238 79.695L156.125 80.3991C156.372 80.3609 156.614 80.2884 156.842 80.1797C157.519 79.8591 158.852 79.424 160.199 80.1186C161.139 80.6033 161.801 81.5173 162.033 82.5802C162.588 85.1219 161.189 86.5282 161.189 86.5282L159.324 88.3391C157.763 89.8541 156.059 91.2051 154.239 92.3691L154.202 92.392L154.866 88.2589C155.24 88.9401 156.086 89.1634 156.73 88.7512C158.356 87.7094 161.014 85.6218 160.691 83.2518C160.466 81.5993 159.579 81.2482 158.727 81.3227C157.774 81.4066 156.942 82.0268 156.535 82.9217C156.437 83.1354 156.276 83.311 156.077 83.4255L155.598 83.6964L154.193 92.4569C154.13 92.85 153.887 93.1897 153.542 93.3652C150.237 95.0425 146.671 94.1724 145.437 93.7812C145.155 93.6915 144.914 93.4988 144.763 93.2354L144.497 92.7794C144.405 92.6229 144.349 92.4455 144.331 92.2642L143.105 79.5137C143.051 78.9508 143.374 78.4241 143.888 78.2314H143.887Z" fill="#490973"/>
<path d="M155.166 78.9088C155.166 79.2084 152.679 79.4507 149.61 79.4507C146.542 79.4507 144.054 79.2084 144.054 78.9088C144.054 78.6092 146.542 78.3669 149.61 78.3669C152.679 78.3669 155.166 78.6092 155.166 78.9088Z" fill="#DEDFE0"/>
<path d="M157.853 90.8769C155.762 87.7666 155.686 84.1086 157.683 82.7042C159.68 81.2998 162.992 82.6813 165.083 85.7935C165.935 87.0243 166.477 88.4516 166.665 89.9572L175.354 103.252L168.978 107.43L161.089 93.8823C159.782 93.1649 158.672 92.1344 157.853 90.8788V90.8769Z" fill="#AD6359"/>
<path d="M162.996 101.63L170.176 94.7906L184.373 108.47L171.17 117.809L162.996 101.63Z" fill="#F2EDD5"/>
<path opacity="0.1" d="M183.119 110.367L183.683 114.853L179.922 110.367V105.843L183.119 110.367Z" fill="#272223"/>
<path d="M59.5653 160V148.364H63.4972C64.41 148.364 65.1563 148.528 65.7358 148.858C66.3191 149.184 66.7509 149.625 67.0312 150.182C67.3116 150.739 67.4517 151.36 67.4517 152.045C67.4517 152.731 67.3116 153.354 67.0312 153.915C66.7547 154.475 66.3267 154.922 65.7472 155.256C65.1676 155.585 64.4252 155.75 63.5199 155.75H60.7017V154.5H63.4744C64.0994 154.5 64.6013 154.392 64.9801 154.176C65.3589 153.96 65.6335 153.669 65.804 153.301C65.9782 152.93 66.0653 152.511 66.0653 152.045C66.0653 151.58 65.9782 151.163 65.804 150.795C65.6335 150.428 65.357 150.14 64.9744 149.932C64.5919 149.72 64.0843 149.614 63.4517 149.614H60.9744V160H59.5653ZM73.1051 160.182C72.2642 160.182 71.5388 159.996 70.929 159.625C70.3229 159.25 69.8551 158.727 69.5256 158.057C69.1998 157.383 69.0369 156.598 69.0369 155.705C69.0369 154.811 69.1998 154.023 69.5256 153.341C69.8551 152.655 70.3134 152.121 70.9006 151.739C71.4915 151.352 72.1809 151.159 72.9688 151.159C73.4233 151.159 73.8722 151.235 74.3153 151.386C74.7585 151.538 75.1619 151.784 75.5256 152.125C75.8892 152.462 76.179 152.909 76.3949 153.466C76.6108 154.023 76.7188 154.708 76.7188 155.523V156.091H69.9915V154.932H75.3551C75.3551 154.439 75.2566 154 75.0597 153.614C74.8665 153.227 74.59 152.922 74.2301 152.699C73.8741 152.475 73.4536 152.364 72.9688 152.364C72.4347 152.364 71.9725 152.496 71.5824 152.761C71.196 153.023 70.8987 153.364 70.6903 153.784C70.482 154.205 70.3778 154.655 70.3778 155.136V155.909C70.3778 156.568 70.4915 157.127 70.7188 157.585C70.9498 158.04 71.2699 158.386 71.679 158.625C72.0881 158.86 72.5634 158.977 73.1051 158.977C73.4574 158.977 73.7756 158.928 74.0597 158.83C74.3475 158.727 74.5956 158.576 74.804 158.375C75.0123 158.17 75.1733 157.917 75.2869 157.614L76.5824 157.977C76.446 158.417 76.2169 158.803 75.8949 159.136C75.5729 159.466 75.1752 159.723 74.7017 159.909C74.2282 160.091 73.696 160.182 73.1051 160.182ZM82.2812 163.455C81.6335 163.455 81.0767 163.371 80.6108 163.205C80.1449 163.042 79.7566 162.826 79.446 162.557C79.1392 162.292 78.8949 162.008 78.7131 161.705L79.7812 160.955C79.9025 161.114 80.0559 161.295 80.2415 161.5C80.4271 161.708 80.6809 161.888 81.0028 162.04C81.3286 162.195 81.7547 162.273 82.2812 162.273C82.9858 162.273 83.5672 162.102 84.0256 161.761C84.4839 161.42 84.7131 160.886 84.7131 160.159V158.386H84.5994C84.5009 158.545 84.3608 158.742 84.179 158.977C84.0009 159.208 83.7434 159.415 83.4062 159.597C83.0729 159.775 82.6222 159.864 82.054 159.864C81.3494 159.864 80.7169 159.697 80.1562 159.364C79.5994 159.03 79.1581 158.545 78.8324 157.909C78.5104 157.273 78.3494 156.5 78.3494 155.591C78.3494 154.697 78.5066 153.919 78.821 153.256C79.1354 152.589 79.5729 152.074 80.1335 151.71C80.6941 151.343 81.3419 151.159 82.0767 151.159C82.6449 151.159 83.0956 151.254 83.429 151.443C83.7661 151.629 84.0237 151.841 84.2017 152.08C84.3835 152.314 84.5237 152.508 84.6222 152.659H84.7585V151.273H86.054V160.25C86.054 161 85.8835 161.61 85.5426 162.08C85.2055 162.553 84.7509 162.9 84.179 163.119C83.6108 163.343 82.9782 163.455 82.2812 163.455ZM82.2358 158.659C82.7737 158.659 83.2282 158.536 83.5994 158.29C83.9706 158.044 84.2528 157.689 84.446 157.227C84.6392 156.765 84.7358 156.212 84.7358 155.568C84.7358 154.939 84.6411 154.384 84.4517 153.903C84.2623 153.422 83.982 153.045 83.6108 152.773C83.2396 152.5 82.7813 152.364 82.2358 152.364C81.6676 152.364 81.1941 152.508 80.8153 152.795C80.4403 153.083 80.1581 153.47 79.9688 153.955C79.7831 154.439 79.6903 154.977 79.6903 155.568C79.6903 156.174 79.785 156.71 79.9744 157.176C80.1676 157.638 80.4517 158.002 80.8267 158.267C81.2055 158.528 81.6752 158.659 82.2358 158.659ZM94.0085 156.432V151.273H95.3494V160H94.0085V158.523H93.9176C93.7131 158.966 93.3949 159.343 92.9631 159.653C92.5313 159.96 91.9858 160.114 91.3267 160.114C90.7812 160.114 90.2964 159.994 89.8722 159.756C89.4479 159.513 89.1146 159.15 88.8722 158.665C88.6297 158.176 88.5085 157.561 88.5085 156.818V151.273H89.8494V156.727C89.8494 157.364 90.0275 157.871 90.3835 158.25C90.7434 158.629 91.2017 158.818 91.7585 158.818C92.0919 158.818 92.4309 158.733 92.7756 158.562C93.1241 158.392 93.4157 158.131 93.6506 157.778C93.8892 157.426 94.0085 156.977 94.0085 156.432ZM101.464 160.182C100.624 160.182 99.8982 159.996 99.2884 159.625C98.6823 159.25 98.2145 158.727 97.8849 158.057C97.5592 157.383 97.3963 156.598 97.3963 155.705C97.3963 154.811 97.5592 154.023 97.8849 153.341C98.2145 152.655 98.6728 152.121 99.2599 151.739C99.8509 151.352 100.54 151.159 101.328 151.159C101.783 151.159 102.232 151.235 102.675 151.386C103.118 151.538 103.521 151.784 103.885 152.125C104.249 152.462 104.538 152.909 104.754 153.466C104.97 154.023 105.078 154.708 105.078 155.523V156.091H98.3509V154.932H103.714C103.714 154.439 103.616 154 103.419 153.614C103.226 153.227 102.949 152.922 102.589 152.699C102.233 152.475 101.813 152.364 101.328 152.364C100.794 152.364 100.332 152.496 99.9418 152.761C99.5554 153.023 99.258 153.364 99.0497 153.784C98.8414 154.205 98.7372 154.655 98.7372 155.136V155.909C98.7372 156.568 98.8509 157.127 99.0781 157.585C99.3092 158.04 99.6293 158.386 100.038 158.625C100.447 158.86 100.923 158.977 101.464 158.977C101.817 158.977 102.135 158.928 102.419 158.83C102.707 158.727 102.955 158.576 103.163 158.375C103.372 158.17 103.533 157.917 103.646 157.614L104.942 157.977C104.805 158.417 104.576 158.803 104.254 159.136C103.932 159.466 103.535 159.723 103.061 159.909C102.588 160.091 102.055 160.182 101.464 160.182ZM117.8 153.227L116.595 153.568C116.519 153.367 116.408 153.172 116.26 152.983C116.116 152.79 115.919 152.631 115.669 152.506C115.419 152.381 115.099 152.318 114.709 152.318C114.175 152.318 113.73 152.441 113.374 152.688C113.021 152.93 112.845 153.239 112.845 153.614C112.845 153.947 112.966 154.21 113.209 154.403C113.451 154.597 113.83 154.758 114.345 154.886L115.641 155.205C116.421 155.394 117.002 155.684 117.385 156.074C117.768 156.46 117.959 156.958 117.959 157.568C117.959 158.068 117.815 158.515 117.527 158.909C117.243 159.303 116.845 159.614 116.334 159.841C115.822 160.068 115.228 160.182 114.55 160.182C113.66 160.182 112.923 159.989 112.339 159.602C111.756 159.216 111.387 158.652 111.232 157.909L112.504 157.591C112.625 158.061 112.855 158.413 113.192 158.648C113.533 158.883 113.978 159 114.527 159C115.152 159 115.648 158.867 116.016 158.602C116.387 158.333 116.572 158.011 116.572 157.636C116.572 157.333 116.466 157.08 116.254 156.875C116.042 156.667 115.716 156.511 115.277 156.409L113.822 156.068C113.023 155.879 112.436 155.585 112.061 155.188C111.69 154.786 111.504 154.284 111.504 153.682C111.504 153.189 111.643 152.754 111.919 152.375C112.199 151.996 112.58 151.699 113.061 151.483C113.546 151.267 114.095 151.159 114.709 151.159C115.572 151.159 116.25 151.348 116.743 151.727C117.239 152.106 117.591 152.606 117.8 153.227ZM123.636 160.182C122.795 160.182 122.07 159.996 121.46 159.625C120.854 159.25 120.386 158.727 120.057 158.057C119.731 157.383 119.568 156.598 119.568 155.705C119.568 154.811 119.731 154.023 120.057 153.341C120.386 152.655 120.845 152.121 121.432 151.739C122.023 151.352 122.712 151.159 123.5 151.159C123.955 151.159 124.403 151.235 124.847 151.386C125.29 151.538 125.693 151.784 126.057 152.125C126.42 152.462 126.71 152.909 126.926 153.466C127.142 154.023 127.25 154.708 127.25 155.523V156.091H120.523V154.932H125.886C125.886 154.439 125.788 154 125.591 153.614C125.398 153.227 125.121 152.922 124.761 152.699C124.405 152.475 123.985 152.364 123.5 152.364C122.966 152.364 122.504 152.496 122.114 152.761C121.727 153.023 121.43 153.364 121.222 153.784C121.013 154.205 120.909 154.655 120.909 155.136V155.909C120.909 156.568 121.023 157.127 121.25 157.585C121.481 158.04 121.801 158.386 122.21 158.625C122.619 158.86 123.095 158.977 123.636 158.977C123.989 158.977 124.307 158.928 124.591 158.83C124.879 158.727 125.127 158.576 125.335 158.375C125.544 158.17 125.705 157.917 125.818 157.614L127.114 157.977C126.977 158.417 126.748 158.803 126.426 159.136C126.104 159.466 125.706 159.723 125.233 159.909C124.759 160.091 124.227 160.182 123.636 160.182ZM134.79 156.432V151.273H136.131V160H134.79V158.523H134.699C134.494 158.966 134.176 159.343 133.744 159.653C133.313 159.96 132.767 160.114 132.108 160.114C131.562 160.114 131.078 159.994 130.653 159.756C130.229 159.513 129.896 159.15 129.653 158.665C129.411 158.176 129.29 157.561 129.29 156.818V151.273H130.631V156.727C130.631 157.364 130.809 157.871 131.165 158.25C131.525 158.629 131.983 158.818 132.54 158.818C132.873 158.818 133.212 158.733 133.557 158.562C133.905 158.392 134.197 158.131 134.432 157.778C134.67 157.426 134.79 156.977 134.79 156.432ZM146.632 160.182C145.814 160.182 145.109 159.989 144.518 159.602C143.928 159.216 143.473 158.684 143.155 158.006C142.837 157.328 142.678 156.553 142.678 155.682C142.678 154.795 142.84 154.013 143.166 153.335C143.496 152.653 143.954 152.121 144.541 151.739C145.132 151.352 145.821 151.159 146.609 151.159C147.223 151.159 147.776 151.273 148.268 151.5C148.761 151.727 149.164 152.045 149.479 152.455C149.793 152.864 149.988 153.341 150.064 153.886H148.723C148.621 153.489 148.393 153.136 148.041 152.83C147.693 152.519 147.223 152.364 146.632 152.364C146.109 152.364 145.651 152.5 145.257 152.773C144.867 153.042 144.562 153.422 144.342 153.915C144.126 154.403 144.018 154.977 144.018 155.636C144.018 156.311 144.125 156.898 144.337 157.398C144.553 157.898 144.856 158.286 145.246 158.562C145.64 158.839 146.102 158.977 146.632 158.977C146.981 158.977 147.297 158.917 147.581 158.795C147.865 158.674 148.106 158.5 148.303 158.273C148.5 158.045 148.64 157.773 148.723 157.455H150.064C149.988 157.97 149.801 158.434 149.501 158.847C149.206 159.256 148.814 159.581 148.325 159.824C147.84 160.062 147.276 160.182 146.632 160.182ZM154.592 160.205C154.039 160.205 153.537 160.1 153.087 159.892C152.636 159.68 152.278 159.375 152.013 158.977C151.748 158.576 151.615 158.091 151.615 157.523C151.615 157.023 151.714 156.617 151.911 156.307C152.107 155.992 152.371 155.746 152.7 155.568C153.03 155.39 153.393 155.258 153.791 155.17C154.193 155.08 154.596 155.008 155.001 154.955C155.532 154.886 155.962 154.835 156.291 154.801C156.625 154.763 156.867 154.701 157.018 154.614C157.174 154.527 157.251 154.375 157.251 154.159V154.114C157.251 153.553 157.098 153.117 156.791 152.807C156.488 152.496 156.028 152.341 155.411 152.341C154.77 152.341 154.268 152.481 153.905 152.761C153.541 153.042 153.286 153.341 153.138 153.659L151.865 153.205C152.092 152.674 152.395 152.261 152.774 151.966C153.157 151.667 153.573 151.458 154.024 151.341C154.479 151.22 154.926 151.159 155.365 151.159C155.645 151.159 155.967 151.193 156.331 151.261C156.698 151.326 157.053 151.46 157.393 151.665C157.738 151.869 158.024 152.178 158.251 152.591C158.479 153.004 158.592 153.557 158.592 154.25V160H157.251V158.818H157.183C157.092 159.008 156.941 159.21 156.729 159.426C156.517 159.642 156.234 159.826 155.882 159.977C155.53 160.129 155.1 160.205 154.592 160.205ZM154.797 159C155.327 159 155.774 158.896 156.138 158.688C156.505 158.479 156.782 158.21 156.967 157.881C157.157 157.551 157.251 157.205 157.251 156.841V155.614C157.195 155.682 157.07 155.744 156.876 155.801C156.687 155.854 156.467 155.902 156.217 155.943C155.971 155.981 155.731 156.015 155.496 156.045C155.265 156.072 155.077 156.095 154.933 156.114C154.585 156.159 154.259 156.233 153.956 156.335C153.657 156.434 153.414 156.583 153.229 156.784C153.047 156.981 152.956 157.25 152.956 157.591C152.956 158.057 153.128 158.409 153.473 158.648C153.821 158.883 154.263 159 154.797 159ZM164.926 151.273V152.409H160.222V151.273H164.926ZM161.631 160V150.068C161.631 149.568 161.748 149.152 161.983 148.818C162.218 148.485 162.523 148.235 162.898 148.068C163.273 147.902 163.669 147.818 164.085 147.818C164.415 147.818 164.684 147.845 164.892 147.898C165.1 147.951 165.256 148 165.358 148.045L164.972 149.205C164.903 149.182 164.809 149.153 164.688 149.119C164.57 149.085 164.415 149.068 164.222 149.068C163.778 149.068 163.458 149.18 163.261 149.403C163.068 149.627 162.972 149.955 162.972 150.386V160H161.631ZM170.105 160.182C169.264 160.182 168.539 159.996 167.929 159.625C167.323 159.25 166.855 158.727 166.526 158.057C166.2 157.383 166.037 156.598 166.037 155.705C166.037 154.811 166.2 154.023 166.526 153.341C166.855 152.655 167.313 152.121 167.901 151.739C168.491 151.352 169.181 151.159 169.969 151.159C170.423 151.159 170.872 151.235 171.315 151.386C171.759 151.538 172.162 151.784 172.526 152.125C172.889 152.462 173.179 152.909 173.395 153.466C173.611 154.023 173.719 154.708 173.719 155.523V156.091H166.991V154.932H172.355C172.355 154.439 172.257 154 172.06 153.614C171.866 153.227 171.59 152.922 171.23 152.699C170.874 152.475 170.454 152.364 169.969 152.364C169.435 152.364 168.973 152.496 168.582 152.761C168.196 153.023 167.899 153.364 167.69 153.784C167.482 154.205 167.378 154.655 167.378 155.136V155.909C167.378 156.568 167.491 157.127 167.719 157.585C167.95 158.04 168.27 158.386 168.679 158.625C169.088 158.86 169.563 158.977 170.105 158.977C170.457 158.977 170.776 158.928 171.06 158.83C171.348 158.727 171.596 158.576 171.804 158.375C172.012 158.17 172.173 157.917 172.287 157.614L173.582 157.977C173.446 158.417 173.217 158.803 172.895 159.136C172.573 159.466 172.175 159.723 171.702 159.909C171.228 160.091 170.696 160.182 170.105 160.182ZM169.287 150.091L170.673 147.455H172.241L170.469 150.091H169.287ZM183.918 160.182C183.077 160.182 182.351 159.996 181.741 159.625C181.135 159.25 180.668 158.727 180.338 158.057C180.012 157.383 179.849 156.598 179.849 155.705C179.849 154.811 180.012 154.023 180.338 153.341C180.668 152.655 181.126 152.121 181.713 151.739C182.304 151.352 182.993 151.159 183.781 151.159C184.236 151.159 184.685 151.235 185.128 151.386C185.571 151.538 185.974 151.784 186.338 152.125C186.702 152.462 186.991 152.909 187.207 153.466C187.423 154.023 187.531 154.708 187.531 155.523V156.091H180.804V154.932H186.168C186.168 154.439 186.069 154 185.872 153.614C185.679 153.227 185.402 152.922 185.043 152.699C184.687 152.475 184.266 152.364 183.781 152.364C183.247 152.364 182.785 152.496 182.395 152.761C182.009 153.023 181.711 153.364 181.503 153.784C181.295 154.205 181.19 154.655 181.19 155.136V155.909C181.19 156.568 181.304 157.127 181.531 157.585C181.762 158.04 182.082 158.386 182.491 158.625C182.901 158.86 183.376 158.977 183.918 158.977C184.27 158.977 184.588 158.928 184.872 158.83C185.16 158.727 185.408 158.576 185.616 158.375C185.825 158.17 185.986 157.917 186.099 157.614L187.395 157.977C187.259 158.417 187.029 158.803 186.707 159.136C186.385 159.466 185.988 159.723 185.514 159.909C185.041 160.091 184.509 160.182 183.918 160.182ZM196.298 160.165C195.741 160.165 195.245 160.068 194.81 159.875C194.374 159.678 194.029 159.388 193.776 159.006C193.526 158.619 193.401 158.138 193.401 157.562C193.401 157.078 193.49 156.67 193.668 156.341C193.846 156.011 194.088 155.746 194.395 155.545C194.702 155.345 195.05 155.193 195.44 155.091C195.834 154.989 196.247 154.917 196.679 154.875C197.187 154.822 197.596 154.773 197.906 154.727C198.217 154.678 198.442 154.606 198.582 154.511C198.723 154.417 198.793 154.277 198.793 154.091V154.057C198.793 153.697 198.679 153.419 198.452 153.222C198.228 153.025 197.91 152.926 197.497 152.926C197.062 152.926 196.715 153.023 196.457 153.216C196.2 153.405 196.029 153.644 195.946 153.932L193.707 153.75C193.821 153.22 194.045 152.761 194.378 152.375C194.711 151.985 195.141 151.686 195.668 151.477C196.198 151.265 196.812 151.159 197.509 151.159C197.993 151.159 198.457 151.216 198.901 151.33C199.348 151.443 199.743 151.619 200.088 151.858C200.437 152.097 200.711 152.403 200.912 152.778C201.113 153.15 201.213 153.595 201.213 154.114V160H198.918V158.79H198.849C198.709 159.062 198.522 159.303 198.287 159.511C198.052 159.716 197.77 159.877 197.44 159.994C197.111 160.108 196.73 160.165 196.298 160.165ZM196.991 158.494C197.348 158.494 197.662 158.424 197.935 158.284C198.207 158.14 198.421 157.947 198.577 157.705C198.732 157.462 198.81 157.187 198.81 156.881V155.955C198.734 156.004 198.63 156.049 198.497 156.091C198.368 156.129 198.223 156.165 198.06 156.199C197.897 156.229 197.734 156.258 197.571 156.284C197.408 156.307 197.26 156.328 197.128 156.347C196.844 156.388 196.596 156.455 196.384 156.545C196.171 156.636 196.007 156.759 195.889 156.915C195.772 157.066 195.713 157.256 195.713 157.483C195.713 157.812 195.832 158.064 196.071 158.239C196.313 158.409 196.62 158.494 196.991 158.494ZM207.023 163.455C206.239 163.455 205.566 163.347 205.006 163.131C204.449 162.919 204.006 162.629 203.676 162.261C203.347 161.894 203.133 161.481 203.034 161.023L205.273 160.722C205.341 160.896 205.449 161.059 205.597 161.21C205.744 161.362 205.939 161.483 206.182 161.574C206.428 161.669 206.727 161.716 207.08 161.716C207.606 161.716 208.04 161.587 208.381 161.33C208.725 161.076 208.898 160.65 208.898 160.051V158.455H208.795C208.689 158.697 208.53 158.926 208.318 159.142C208.106 159.358 207.833 159.534 207.5 159.67C207.167 159.807 206.769 159.875 206.307 159.875C205.652 159.875 205.055 159.723 204.517 159.42C203.983 159.114 203.557 158.646 203.239 158.017C202.924 157.384 202.767 156.585 202.767 155.619C202.767 154.631 202.928 153.805 203.25 153.142C203.572 152.479 204 151.983 204.534 151.653C205.072 151.324 205.661 151.159 206.301 151.159C206.79 151.159 207.199 151.242 207.528 151.409C207.858 151.572 208.123 151.777 208.324 152.023C208.528 152.265 208.686 152.504 208.795 152.739H208.886V151.273H211.29V160.085C211.29 160.828 211.108 161.449 210.744 161.949C210.381 162.449 209.877 162.824 209.233 163.074C208.593 163.328 207.856 163.455 207.023 163.455ZM207.074 158.057C207.464 158.057 207.794 157.96 208.062 157.767C208.335 157.57 208.544 157.29 208.688 156.926C208.835 156.559 208.909 156.119 208.909 155.608C208.909 155.097 208.837 154.653 208.693 154.278C208.549 153.9 208.341 153.606 208.068 153.398C207.795 153.189 207.464 153.085 207.074 153.085C206.676 153.085 206.341 153.193 206.068 153.409C205.795 153.621 205.589 153.917 205.449 154.295C205.309 154.674 205.239 155.112 205.239 155.608C205.239 156.112 205.309 156.547 205.449 156.915C205.593 157.278 205.799 157.561 206.068 157.761C206.341 157.958 206.676 158.057 207.074 158.057ZM218.812 156.284V151.273H221.233V160H218.909V158.415H218.818C218.621 158.926 218.294 159.337 217.835 159.648C217.381 159.958 216.826 160.114 216.17 160.114C215.587 160.114 215.074 159.981 214.631 159.716C214.188 159.451 213.841 159.074 213.591 158.585C213.345 158.097 213.22 157.511 213.216 156.83V151.273H215.636V156.398C215.64 156.913 215.778 157.32 216.051 157.619C216.324 157.919 216.689 158.068 217.148 158.068C217.439 158.068 217.712 158.002 217.966 157.869C218.22 157.733 218.424 157.532 218.58 157.267C218.739 157.002 218.816 156.674 218.812 156.284ZM225.658 160.165C225.101 160.165 224.605 160.068 224.169 159.875C223.733 159.678 223.389 159.388 223.135 159.006C222.885 158.619 222.76 158.138 222.76 157.562C222.76 157.078 222.849 156.67 223.027 156.341C223.205 156.011 223.447 155.746 223.754 155.545C224.061 155.345 224.41 155.193 224.8 155.091C225.194 154.989 225.607 154.917 226.038 154.875C226.546 154.822 226.955 154.773 227.266 154.727C227.576 154.678 227.802 154.606 227.942 154.511C228.082 154.417 228.152 154.277 228.152 154.091V154.057C228.152 153.697 228.038 153.419 227.811 153.222C227.588 153.025 227.269 152.926 226.857 152.926C226.421 152.926 226.074 153.023 225.817 153.216C225.559 153.405 225.389 153.644 225.305 153.932L223.067 153.75C223.18 153.22 223.404 152.761 223.737 152.375C224.071 151.985 224.5 151.686 225.027 151.477C225.557 151.265 226.171 151.159 226.868 151.159C227.353 151.159 227.817 151.216 228.26 151.33C228.707 151.443 229.103 151.619 229.447 151.858C229.796 152.097 230.071 152.403 230.271 152.778C230.472 153.15 230.572 153.595 230.572 154.114V160H228.277V158.79H228.209C228.069 159.062 227.881 159.303 227.646 159.511C227.411 159.716 227.129 159.877 226.8 159.994C226.47 160.108 226.089 160.165 225.658 160.165ZM226.351 158.494C226.707 158.494 227.021 158.424 227.294 158.284C227.567 158.14 227.781 157.947 227.936 157.705C228.091 157.462 228.169 157.187 228.169 156.881V155.955C228.093 156.004 227.989 156.049 227.857 156.091C227.728 156.129 227.582 156.165 227.419 156.199C227.256 156.229 227.093 156.258 226.93 156.284C226.768 156.307 226.62 156.328 226.487 156.347C226.203 156.388 225.955 156.455 225.743 156.545C225.531 156.636 225.366 156.759 225.249 156.915C225.131 157.066 225.072 157.256 225.072 157.483C225.072 157.812 225.192 158.064 225.43 158.239C225.673 158.409 225.98 158.494 226.351 158.494ZM232.45 160V151.273H234.797V152.795H234.888C235.047 152.254 235.314 151.845 235.689 151.568C236.064 151.288 236.496 151.148 236.984 151.148C237.106 151.148 237.236 151.155 237.376 151.17C237.517 151.186 237.64 151.206 237.746 151.233V153.381C237.632 153.347 237.475 153.316 237.274 153.29C237.073 153.263 236.89 153.25 236.723 153.25C236.367 153.25 236.049 153.328 235.768 153.483C235.492 153.634 235.272 153.847 235.109 154.119C234.95 154.392 234.871 154.706 234.871 155.062V160H232.45ZM241.807 160.142C241.144 160.142 240.544 159.972 240.006 159.631C239.472 159.286 239.047 158.78 238.733 158.114C238.422 157.443 238.267 156.621 238.267 155.648C238.267 154.648 238.428 153.816 238.75 153.153C239.072 152.487 239.5 151.989 240.034 151.659C240.572 151.326 241.161 151.159 241.801 151.159C242.29 151.159 242.697 151.242 243.023 151.409C243.352 151.572 243.617 151.777 243.818 152.023C244.023 152.265 244.178 152.504 244.284 152.739H244.358V148.364H246.773V160H244.386V158.602H244.284C244.17 158.845 244.009 159.085 243.801 159.324C243.597 159.559 243.33 159.754 243 159.909C242.674 160.064 242.277 160.142 241.807 160.142ZM242.574 158.216C242.964 158.216 243.294 158.11 243.562 157.898C243.835 157.682 244.044 157.381 244.188 156.994C244.335 156.608 244.409 156.155 244.409 155.636C244.409 155.117 244.337 154.667 244.193 154.284C244.049 153.902 243.841 153.606 243.568 153.398C243.295 153.189 242.964 153.085 242.574 153.085C242.176 153.085 241.841 153.193 241.568 153.409C241.295 153.625 241.089 153.924 240.949 154.307C240.809 154.689 240.739 155.133 240.739 155.636C240.739 156.144 240.809 156.593 240.949 156.983C241.093 157.369 241.299 157.672 241.568 157.892C241.841 158.108 242.176 158.216 242.574 158.216ZM252.74 160.17C251.842 160.17 251.07 159.989 250.422 159.625C249.778 159.258 249.282 158.739 248.933 158.068C248.585 157.394 248.411 156.597 248.411 155.676C248.411 154.778 248.585 153.991 248.933 153.312C249.282 152.634 249.772 152.106 250.405 151.727C251.041 151.348 251.787 151.159 252.643 151.159C253.219 151.159 253.755 151.252 254.251 151.438C254.751 151.619 255.187 151.894 255.558 152.261C255.933 152.629 256.225 153.091 256.433 153.648C256.642 154.201 256.746 154.848 256.746 155.591V156.256H249.376V154.756H254.467C254.467 154.407 254.392 154.098 254.24 153.83C254.089 153.561 253.878 153.35 253.609 153.199C253.344 153.044 253.036 152.966 252.683 152.966C252.316 152.966 251.99 153.051 251.706 153.222C251.426 153.388 251.206 153.614 251.047 153.898C250.888 154.178 250.806 154.491 250.803 154.835V156.261C250.803 156.693 250.882 157.066 251.041 157.381C251.204 157.695 251.433 157.938 251.729 158.108C252.024 158.278 252.375 158.364 252.78 158.364C253.049 158.364 253.295 158.326 253.518 158.25C253.742 158.174 253.933 158.061 254.092 157.909C254.251 157.758 254.373 157.572 254.456 157.352L256.695 157.5C256.581 158.038 256.348 158.508 255.996 158.909C255.647 159.307 255.196 159.617 254.643 159.841C254.094 160.061 253.46 160.17 252.74 160.17ZM260.587 158.409L260.496 159.023C260.431 159.455 260.333 159.917 260.2 160.409C260.071 160.902 259.937 161.366 259.797 161.801C259.657 162.237 259.541 162.583 259.45 162.841H258.428C258.477 162.598 258.541 162.278 258.621 161.881C258.7 161.483 258.78 161.038 258.859 160.545C258.943 160.057 259.011 159.557 259.064 159.045L259.132 158.409H260.587ZM78.3572 179.17C77.4595 179.17 76.6868 178.989 76.0391 178.625C75.3951 178.258 74.8989 177.739 74.5504 177.068C74.2019 176.394 74.0277 175.597 74.0277 174.676C74.0277 173.778 74.2019 172.991 74.5504 172.312C74.8989 171.634 75.3894 171.106 76.022 170.727C76.6584 170.348 77.4046 170.159 78.2607 170.159C78.8364 170.159 79.3724 170.252 79.8686 170.438C80.3686 170.619 80.8042 170.894 81.1754 171.261C81.5504 171.629 81.8421 172.091 82.0504 172.648C82.2588 173.201 82.3629 173.848 82.3629 174.591V175.256H74.9936V173.756H80.0845C80.0845 173.407 80.0088 173.098 79.8572 172.83C79.7057 172.561 79.4955 172.35 79.2266 172.199C78.9614 172.044 78.6527 171.966 78.3004 171.966C77.933 171.966 77.6072 172.051 77.3232 172.222C77.0429 172.388 76.8232 172.614 76.6641 172.898C76.505 173.178 76.4235 173.491 76.4197 173.835V175.261C76.4197 175.693 76.4993 176.066 76.6584 176.381C76.8213 176.695 77.0504 176.938 77.3459 177.108C77.6413 177.278 77.9917 177.364 78.397 177.364C78.666 177.364 78.9122 177.326 79.1357 177.25C79.3591 177.174 79.5504 177.061 79.7095 176.909C79.8686 176.758 79.9898 176.572 80.0732 176.352L82.3118 176.5C82.1982 177.038 81.9652 177.508 81.6129 177.909C81.2644 178.307 80.8137 178.617 80.2607 178.841C79.7114 179.061 79.0769 179.17 78.3572 179.17ZM91.2038 172.761L88.9879 172.898C88.95 172.708 88.8686 172.538 88.7436 172.386C88.6186 172.231 88.4538 172.108 88.2493 172.017C88.0485 171.922 87.808 171.875 87.5277 171.875C87.1527 171.875 86.8364 171.955 86.5788 172.114C86.3213 172.269 86.1925 172.477 86.1925 172.739C86.1925 172.947 86.2758 173.123 86.4425 173.267C86.6091 173.411 86.8951 173.527 87.3004 173.614L88.88 173.932C89.7285 174.106 90.361 174.386 90.7777 174.773C91.1944 175.159 91.4027 175.667 91.4027 176.295C91.4027 176.867 91.2341 177.369 90.897 177.801C90.5637 178.233 90.1054 178.57 89.522 178.812C88.9425 179.051 88.2739 179.17 87.5163 179.17C86.361 179.17 85.4406 178.93 84.755 178.449C84.0732 177.964 83.6735 177.305 83.5561 176.472L85.9368 176.347C86.0088 176.699 86.183 176.968 86.4595 177.153C86.736 177.335 87.0902 177.426 87.522 177.426C87.9463 177.426 88.2872 177.345 88.5447 177.182C88.8061 177.015 88.9387 176.801 88.9425 176.54C88.9387 176.32 88.8459 176.14 88.6641 176C88.4822 175.856 88.2019 175.746 87.8232 175.67L86.3118 175.369C85.4595 175.199 84.825 174.903 84.4084 174.483C83.9955 174.062 83.7891 173.527 83.7891 172.875C83.7891 172.314 83.9406 171.831 84.2436 171.426C84.5504 171.021 84.9804 170.708 85.5334 170.489C86.0902 170.269 86.7417 170.159 87.4879 170.159C88.5902 170.159 89.4576 170.392 90.0902 170.858C90.7266 171.324 91.0978 171.958 91.2038 172.761ZM97.5689 170.273V172.091H92.3132V170.273H97.5689ZM93.5064 168.182H95.9268V176.318C95.9268 176.542 95.9609 176.716 96.0291 176.841C96.0973 176.962 96.192 177.047 96.3132 177.097C96.4382 177.146 96.5821 177.17 96.745 177.17C96.8587 177.17 96.9723 177.161 97.0859 177.142C97.1996 177.119 97.2867 177.102 97.3473 177.091L97.728 178.892C97.6068 178.93 97.4363 178.973 97.2166 179.023C96.9969 179.076 96.7299 179.108 96.4155 179.119C95.8321 179.142 95.3208 179.064 94.8814 178.886C94.4458 178.708 94.1068 178.432 93.8643 178.057C93.6219 177.682 93.5026 177.208 93.5064 176.636V168.182ZM102.995 179.17C102.112 179.17 101.349 178.983 100.705 178.608C100.065 178.229 99.5708 177.703 99.2223 177.028C98.8738 176.35 98.6996 175.564 98.6996 174.67C98.6996 173.769 98.8738 172.981 99.2223 172.307C99.5708 171.629 100.065 171.102 100.705 170.727C101.349 170.348 102.112 170.159 102.995 170.159C103.878 170.159 104.639 170.348 105.279 170.727C105.923 171.102 106.419 171.629 106.768 172.307C107.116 172.981 107.29 173.769 107.29 174.67C107.29 175.564 107.116 176.35 106.768 177.028C106.419 177.703 105.923 178.229 105.279 178.608C104.639 178.983 103.878 179.17 102.995 179.17ZM103.006 177.295C103.408 177.295 103.743 177.182 104.012 176.955C104.281 176.723 104.484 176.409 104.62 176.011C104.76 175.614 104.83 175.161 104.83 174.653C104.83 174.146 104.76 173.693 104.62 173.295C104.484 172.898 104.281 172.583 104.012 172.352C103.743 172.121 103.408 172.006 103.006 172.006C102.601 172.006 102.26 172.121 101.984 172.352C101.711 172.583 101.504 172.898 101.364 173.295C101.228 173.693 101.16 174.146 101.16 174.653C101.16 175.161 101.228 175.614 101.364 176.011C101.504 176.409 101.711 176.723 101.984 176.955C102.26 177.182 102.601 177.295 103.006 177.295ZM114.461 175.284V170.273H116.881V179H114.558V177.415H114.467C114.27 177.926 113.942 178.337 113.484 178.648C113.029 178.958 112.474 179.114 111.819 179.114C111.236 179.114 110.722 178.981 110.279 178.716C109.836 178.451 109.489 178.074 109.239 177.585C108.993 177.097 108.868 176.511 108.864 175.83V170.273H111.285V175.398C111.289 175.913 111.427 176.32 111.7 176.619C111.972 176.919 112.338 177.068 112.796 177.068C113.088 177.068 113.361 177.002 113.614 176.869C113.868 176.733 114.073 176.532 114.228 176.267C114.387 176.002 114.465 175.674 114.461 175.284ZM126.533 179.142C125.871 179.142 125.27 178.972 124.732 178.631C124.198 178.286 123.774 177.78 123.46 177.114C123.149 176.443 122.994 175.621 122.994 174.648C122.994 173.648 123.155 172.816 123.477 172.153C123.799 171.487 124.227 170.989 124.761 170.659C125.299 170.326 125.888 170.159 126.528 170.159C127.016 170.159 127.424 170.242 127.749 170.409C128.079 170.572 128.344 170.777 128.545 171.023C128.749 171.265 128.905 171.504 129.011 171.739H129.085V167.364H131.499V179H129.113V177.602H129.011C128.897 177.845 128.736 178.085 128.528 178.324C128.323 178.559 128.056 178.754 127.727 178.909C127.401 179.064 127.003 179.142 126.533 179.142ZM127.3 177.216C127.691 177.216 128.02 177.11 128.289 176.898C128.562 176.682 128.77 176.381 128.914 175.994C129.062 175.608 129.136 175.155 129.136 174.636C129.136 174.117 129.064 173.667 128.92 173.284C128.776 172.902 128.567 172.606 128.295 172.398C128.022 172.189 127.691 172.085 127.3 172.085C126.903 172.085 126.567 172.193 126.295 172.409C126.022 172.625 125.816 172.924 125.675 173.307C125.535 173.689 125.465 174.133 125.465 174.636C125.465 175.144 125.535 175.593 125.675 175.983C125.819 176.369 126.026 176.672 126.295 176.892C126.567 177.108 126.903 177.216 127.3 177.216ZM137.467 179.17C136.569 179.17 135.796 178.989 135.148 178.625C134.504 178.258 134.008 177.739 133.66 177.068C133.311 176.394 133.137 175.597 133.137 174.676C133.137 173.778 133.311 172.991 133.66 172.312C134.008 171.634 134.499 171.106 135.131 170.727C135.768 170.348 136.514 170.159 137.37 170.159C137.946 170.159 138.482 170.252 138.978 170.438C139.478 170.619 139.914 170.894 140.285 171.261C140.66 171.629 140.951 172.091 141.16 172.648C141.368 173.201 141.472 173.848 141.472 174.591V175.256H134.103V173.756H139.194C139.194 173.407 139.118 173.098 138.967 172.83C138.815 172.561 138.605 172.35 138.336 172.199C138.071 172.044 137.762 171.966 137.41 171.966C137.042 171.966 136.717 172.051 136.433 172.222C136.152 172.388 135.933 172.614 135.773 172.898C135.614 173.178 135.533 173.491 135.529 173.835V175.261C135.529 175.693 135.609 176.066 135.768 176.381C135.931 176.695 136.16 176.938 136.455 177.108C136.751 177.278 137.101 177.364 137.506 177.364C137.775 177.364 138.022 177.326 138.245 177.25C138.469 177.174 138.66 177.061 138.819 176.909C138.978 176.758 139.099 176.572 139.183 176.352L141.421 176.5C141.308 177.038 141.075 177.508 140.722 177.909C140.374 178.307 139.923 178.617 139.37 178.841C138.821 179.061 138.186 179.17 137.467 179.17ZM150.313 172.761L148.097 172.898C148.059 172.708 147.978 172.538 147.853 172.386C147.728 172.231 147.563 172.108 147.359 172.017C147.158 171.922 146.917 171.875 146.637 171.875C146.262 171.875 145.946 171.955 145.688 172.114C145.431 172.269 145.302 172.477 145.302 172.739C145.302 172.947 145.385 173.123 145.552 173.267C145.719 173.411 146.004 173.527 146.41 173.614L147.989 173.932C148.838 174.106 149.47 174.386 149.887 174.773C150.304 175.159 150.512 175.667 150.512 176.295C150.512 176.867 150.344 177.369 150.006 177.801C149.673 178.233 149.215 178.57 148.631 178.812C148.052 179.051 147.383 179.17 146.626 179.17C145.47 179.17 144.55 178.93 143.864 178.449C143.183 177.964 142.783 177.305 142.665 176.472L145.046 176.347C145.118 176.699 145.292 176.968 145.569 177.153C145.845 177.335 146.2 177.426 146.631 177.426C147.056 177.426 147.397 177.345 147.654 177.182C147.915 177.015 148.048 176.801 148.052 176.54C148.048 176.32 147.955 176.14 147.773 176C147.592 175.856 147.311 175.746 146.933 175.67L145.421 175.369C144.569 175.199 143.934 174.903 143.518 174.483C143.105 174.062 142.898 173.527 142.898 172.875C142.898 172.314 143.05 171.831 143.353 171.426C143.66 171.021 144.09 170.708 144.643 170.489C145.2 170.269 145.851 170.159 146.597 170.159C147.7 170.159 148.567 170.392 149.2 170.858C149.836 171.324 150.207 171.958 150.313 172.761ZM156.013 179.17C155.116 179.17 154.343 178.989 153.695 178.625C153.051 178.258 152.555 177.739 152.207 177.068C151.858 176.394 151.684 175.597 151.684 174.676C151.684 173.778 151.858 172.991 152.207 172.312C152.555 171.634 153.046 171.106 153.678 170.727C154.315 170.348 155.061 170.159 155.917 170.159C156.493 170.159 157.029 170.252 157.525 170.438C158.025 170.619 158.46 170.894 158.832 171.261C159.207 171.629 159.498 172.091 159.707 172.648C159.915 173.201 160.019 173.848 160.019 174.591V175.256H152.65V173.756H157.741C157.741 173.407 157.665 173.098 157.513 172.83C157.362 172.561 157.152 172.35 156.883 172.199C156.618 172.044 156.309 171.966 155.957 171.966C155.589 171.966 155.263 172.051 154.979 172.222C154.699 172.388 154.479 172.614 154.32 172.898C154.161 173.178 154.08 173.491 154.076 173.835V175.261C154.076 175.693 154.156 176.066 154.315 176.381C154.478 176.695 154.707 176.938 155.002 177.108C155.298 177.278 155.648 177.364 156.053 177.364C156.322 177.364 156.568 177.326 156.792 177.25C157.015 177.174 157.207 177.061 157.366 176.909C157.525 176.758 157.646 176.572 157.729 176.352L159.968 176.5C159.854 177.038 159.621 177.508 159.269 177.909C158.921 178.307 158.47 178.617 157.917 178.841C157.368 179.061 156.733 179.17 156.013 179.17ZM164.019 173.955V179H161.599V170.273H163.906V171.812H164.008C164.201 171.305 164.525 170.903 164.979 170.608C165.434 170.309 165.985 170.159 166.633 170.159C167.239 170.159 167.767 170.292 168.218 170.557C168.669 170.822 169.019 171.201 169.269 171.693C169.519 172.182 169.644 172.765 169.644 173.443V179H167.224V173.875C167.228 173.341 167.091 172.924 166.815 172.625C166.538 172.322 166.157 172.17 165.673 172.17C165.347 172.17 165.059 172.241 164.809 172.381C164.563 172.521 164.37 172.725 164.229 172.994C164.093 173.259 164.023 173.58 164.019 173.955ZM179.376 170.273L176.325 179H173.597L170.546 170.273H173.103L174.915 176.517H175.006L176.813 170.273H179.376ZM184.276 179.17C183.394 179.17 182.63 178.983 181.987 178.608C181.346 178.229 180.852 177.703 180.504 177.028C180.155 176.35 179.981 175.564 179.981 174.67C179.981 173.769 180.155 172.981 180.504 172.307C180.852 171.629 181.346 171.102 181.987 170.727C182.63 170.348 183.394 170.159 184.276 170.159C185.159 170.159 185.92 170.348 186.56 170.727C187.204 171.102 187.701 171.629 188.049 172.307C188.397 172.981 188.572 173.769 188.572 174.67C188.572 175.564 188.397 176.35 188.049 177.028C187.701 177.703 187.204 178.229 186.56 178.608C185.92 178.983 185.159 179.17 184.276 179.17ZM184.288 177.295C184.689 177.295 185.024 177.182 185.293 176.955C185.562 176.723 185.765 176.409 185.901 176.011C186.041 175.614 186.112 175.161 186.112 174.653C186.112 174.146 186.041 173.693 185.901 173.295C185.765 172.898 185.562 172.583 185.293 172.352C185.024 172.121 184.689 172.006 184.288 172.006C183.882 172.006 183.541 172.121 183.265 172.352C182.992 172.583 182.786 172.898 182.646 173.295C182.509 173.693 182.441 174.146 182.441 174.653C182.441 175.161 182.509 175.614 182.646 176.011C182.786 176.409 182.992 176.723 183.265 176.955C183.541 177.182 183.882 177.295 184.288 177.295ZM192.566 167.364V179H190.146V167.364H192.566ZM202.641 170.273L199.59 179H196.863L193.812 170.273H196.369L198.181 176.517H198.272L200.079 170.273H202.641ZM207.576 179.17C206.678 179.17 205.906 178.989 205.258 178.625C204.614 178.258 204.118 177.739 203.769 177.068C203.421 176.394 203.246 175.597 203.246 174.676C203.246 173.778 203.421 172.991 203.769 172.312C204.118 171.634 204.608 171.106 205.241 170.727C205.877 170.348 206.623 170.159 207.479 170.159C208.055 170.159 208.591 170.252 209.087 170.438C209.587 170.619 210.023 170.894 210.394 171.261C210.769 171.629 211.061 172.091 211.269 172.648C211.478 173.201 211.582 173.848 211.582 174.591V175.256H204.212V173.756H209.303C209.303 173.407 209.228 173.098 209.076 172.83C208.924 172.561 208.714 172.35 208.445 172.199C208.18 172.044 207.871 171.966 207.519 171.966C207.152 171.966 206.826 172.051 206.542 172.222C206.262 172.388 206.042 172.614 205.883 172.898C205.724 173.178 205.642 173.491 205.638 173.835V175.261C205.638 175.693 205.718 176.066 205.877 176.381C206.04 176.695 206.269 176.938 206.565 177.108C206.86 177.278 207.21 177.364 207.616 177.364C207.885 177.364 208.131 177.326 208.354 177.25C208.578 177.174 208.769 177.061 208.928 176.909C209.087 176.758 209.209 176.572 209.292 176.352L211.531 176.5C211.417 177.038 211.184 177.508 210.832 177.909C210.483 178.307 210.032 178.617 209.479 178.841C208.93 179.061 208.296 179.17 207.576 179.17ZM215.582 173.955V179H213.161V170.273H215.468V171.812H215.57C215.763 171.305 216.087 170.903 216.542 170.608C216.996 170.309 217.548 170.159 218.195 170.159C218.801 170.159 219.33 170.292 219.781 170.557C220.231 170.822 220.582 171.201 220.832 171.693C221.082 172.182 221.207 172.765 221.207 173.443V179H218.786V173.875C218.79 173.341 218.654 172.924 218.377 172.625C218.101 172.322 217.72 172.17 217.235 172.17C216.909 172.17 216.621 172.241 216.371 172.381C216.125 172.521 215.932 172.725 215.792 172.994C215.656 173.259 215.585 173.58 215.582 173.955ZM226.33 179.142C225.667 179.142 225.067 178.972 224.529 178.631C223.995 178.286 223.571 177.78 223.256 177.114C222.946 176.443 222.79 175.621 222.79 174.648C222.79 173.648 222.951 172.816 223.273 172.153C223.595 171.487 224.023 170.989 224.558 170.659C225.095 170.326 225.684 170.159 226.325 170.159C226.813 170.159 227.22 170.242 227.546 170.409C227.876 170.572 228.141 170.777 228.342 171.023C228.546 171.265 228.701 171.504 228.808 171.739H228.881V167.364H231.296V179H228.91V177.602H228.808C228.694 177.845 228.533 178.085 228.325 178.324C228.12 178.559 227.853 178.754 227.523 178.909C227.198 179.064 226.8 179.142 226.33 179.142ZM227.097 177.216C227.487 177.216 227.817 177.11 228.086 176.898C228.359 176.682 228.567 176.381 228.711 175.994C228.859 175.608 228.933 175.155 228.933 174.636C228.933 174.117 228.861 173.667 228.717 173.284C228.573 172.902 228.364 172.606 228.092 172.398C227.819 172.189 227.487 172.085 227.097 172.085C226.7 172.085 226.364 172.193 226.092 172.409C225.819 172.625 225.612 172.924 225.472 173.307C225.332 173.689 225.262 174.133 225.262 174.636C225.262 175.144 225.332 175.593 225.472 175.983C225.616 176.369 225.823 176.672 226.092 176.892C226.364 177.108 226.7 177.216 227.097 177.216ZM237.229 179.17C236.347 179.17 235.584 178.983 234.94 178.608C234.299 178.229 233.805 177.703 233.457 177.028C233.108 176.35 232.934 175.564 232.934 174.67C232.934 173.769 233.108 172.981 233.457 172.307C233.805 171.629 234.299 171.102 234.94 170.727C235.584 170.348 236.347 170.159 237.229 170.159C238.112 170.159 238.873 170.348 239.513 170.727C240.157 171.102 240.654 171.629 241.002 172.307C241.351 172.981 241.525 173.769 241.525 174.67C241.525 175.564 241.351 176.35 241.002 177.028C240.654 177.703 240.157 178.229 239.513 178.608C238.873 178.983 238.112 179.17 237.229 179.17ZM237.241 177.295C237.642 177.295 237.978 177.182 238.246 176.955C238.515 176.723 238.718 176.409 238.854 176.011C238.995 175.614 239.065 175.161 239.065 174.653C239.065 174.146 238.995 173.693 238.854 173.295C238.718 172.898 238.515 172.583 238.246 172.352C237.978 172.121 237.642 172.006 237.241 172.006C236.835 172.006 236.495 172.121 236.218 172.352C235.945 172.583 235.739 172.898 235.599 173.295C235.462 173.693 235.394 174.146 235.394 174.653C235.394 175.161 235.462 175.614 235.599 176.011C235.739 176.409 235.945 176.723 236.218 176.955C236.495 177.182 236.835 177.295 237.241 177.295ZM245.133 167.364L245.019 175.727H243.701L243.587 167.364H245.133ZM244.36 179.091C244.08 179.091 243.839 178.991 243.638 178.79C243.438 178.589 243.337 178.348 243.337 178.068C243.337 177.788 243.438 177.547 243.638 177.347C243.839 177.146 244.08 177.045 244.36 177.045C244.64 177.045 244.881 177.146 245.082 177.347C245.282 177.547 245.383 177.788 245.383 178.068C245.383 178.254 245.335 178.424 245.241 178.58C245.15 178.735 245.027 178.86 244.871 178.955C244.72 179.045 244.549 179.091 244.36 179.091Z" fill="#F2EDD5"/>
</svg>
