<svg width="24" height="24" viewBox="0 0 24 24" fill="none" xmlns="http://www.w3.org/2000/svg">
<g clip-path="url(#clip0_5_51)">
<path fill-rule="evenodd" clip-rule="evenodd" d="M12 0.296005C5.373 0.296005 0 5.668 0 12.296C0 17.598 3.438 22.096 8.206 23.683C8.806 23.794 9.026 23.423 9.026 23.106C9.026 22.82 9.015 21.875 9.01 20.872C5.672 21.598 4.967 19.456 4.967 19.456C4.421 18.069 3.635 17.7 3.635 17.7C2.546 16.955 3.717 16.971 3.717 16.971C4.922 17.056 5.556 18.208 5.556 18.208C6.626 20.042 8.363 19.512 9.048 19.205C9.156 18.429 9.467 17.9 9.81 17.6C7.145 17.297 4.343 16.268 4.343 11.67C4.343 10.36 4.812 9.289 5.58 8.449C5.455 8.146 5.044 6.926 5.696 5.273C5.696 5.273 6.704 4.951 8.997 6.503C9.954 6.237 10.98 6.104 12 6.099C13.02 6.104 14.047 6.237 15.006 6.503C17.296 4.95 18.303 5.273 18.303 5.273C18.956 6.926 18.545 8.146 18.421 8.449C19.19 9.289 19.656 10.36 19.656 11.67C19.656 16.279 16.849 17.294 14.177 17.591C14.607 17.963 14.991 18.694 14.991 19.813C14.991 21.419 14.977 22.711 14.977 23.106C14.977 23.425 15.193 23.8 15.801 23.682C20.567 22.093 24.001 17.597 24.001 12.297C24 5.669 18.627 0.296005 12 0.296005Z" fill="#490973"/>
<path d="M4.545 17.526C4.519 17.586 4.425 17.604 4.339 17.563C4.252 17.524 4.203 17.442 4.231 17.383C4.257 17.322 4.351 17.305 4.438 17.346C4.525 17.384 4.575 17.466 4.545 17.526Z" fill="#490973"/>
<path d="M5.031 18.068C4.974 18.121 4.862 18.096 4.786 18.013C4.707 17.929 4.693 17.817 4.751 17.764C4.81 17.711 4.918 17.736 4.997 17.82C5.076 17.903 5.091 18.014 5.031 18.068Z" fill="#490973"/>
<path d="M5.504 18.759C5.43 18.81 5.31 18.762 5.236 18.656C5.162 18.549 5.162 18.421 5.238 18.37C5.312 18.319 5.431 18.365 5.506 18.471C5.579 18.579 5.579 18.707 5.504 18.759Z" fill="#490973"/>
<path d="M6.152 19.427C6.086 19.5 5.946 19.48 5.844 19.381C5.739 19.284 5.71 19.147 5.776 19.074C5.843 19.001 5.984 19.022 6.087 19.12C6.191 19.217 6.222 19.355 6.152 19.427Z" fill="#490973"/>
<path d="M7.047 19.814C7.018 19.908 6.883 19.951 6.747 19.911C6.611 19.87 6.522 19.76 6.55 19.665C6.578 19.57 6.714 19.526 6.851 19.569C6.986 19.609 7.075 19.719 7.047 19.814Z" fill="#490973"/>
<path d="M8.029 19.886C8.032 19.985 7.917 20.067 7.774 20.069C7.631 20.072 7.514 19.992 7.513 19.895C7.513 19.795 7.626 19.714 7.769 19.711C7.912 19.708 8.029 19.788 8.029 19.886Z" fill="#490973"/>
<path d="M8.943 19.731C8.96 19.827 8.861 19.927 8.719 19.953C8.58 19.979 8.451 19.919 8.433 19.823C8.416 19.724 8.517 19.625 8.656 19.599C8.797 19.574 8.925 19.632 8.943 19.731Z" fill="#490973"/>
</g>
<defs>
<clipPath id="clip0_5_51">
<rect width="24" height="24" fill="white"/>
</clipPath>
</defs>
</svg>
