<svg width="30" height="30" viewBox="0 0 30 30" fill="none" xmlns="http://www.w3.org/2000/svg">
<g clip-path="url(#clip0_23_50)">
<path fill-rule="evenodd" clip-rule="evenodd" d="M15 0.370117C6.71625 0.370117 0 7.08512 0 15.3701C0 21.9976 4.2975 27.6201 10.2575 29.6039C11.0075 29.7426 11.2825 29.2789 11.2825 28.8826C11.2825 28.5251 11.2688 27.3439 11.2625 26.0901C7.09 26.9976 6.20875 24.3201 6.20875 24.3201C5.52625 22.5864 4.54375 22.1251 4.54375 22.1251C3.1825 21.1939 4.64625 21.2139 4.64625 21.2139C6.1525 21.3201 6.945 22.7601 6.945 22.7601C8.2825 25.0526 10.4538 24.3901 11.31 24.0064C11.445 23.0364 11.8338 22.3751 12.2625 22.0001C8.93125 21.6214 5.42875 20.3351 5.42875 14.5876C5.42875 12.9501 6.015 11.6114 6.975 10.5614C6.81875 10.1826 6.305 8.65762 7.12 6.59137C7.12 6.59137 8.38 6.18887 11.2463 8.12887C12.4425 7.79637 13.725 7.63012 15 7.62387C16.275 7.63012 17.5588 7.79637 18.7575 8.12887C21.62 6.18762 22.8787 6.59137 22.8787 6.59137C23.695 8.65762 23.1812 10.1826 23.0262 10.5614C23.9875 11.6114 24.57 12.9501 24.57 14.5876C24.57 20.3489 21.0613 21.6176 17.7213 21.9889C18.2588 22.4539 18.7388 23.3676 18.7388 24.7664C18.7388 26.7739 18.7213 28.3889 18.7213 28.8826C18.7213 29.2814 18.9912 29.7501 19.7512 29.6026C25.7087 27.6164 30.0012 21.9964 30.0012 15.3714C30 7.08637 23.2838 0.370117 15 0.370117Z" fill="#490973"/>
<path d="M5.68123 21.9075C5.64873 21.9825 5.53123 22.005 5.42373 21.9538C5.31498 21.905 5.25373 21.8025 5.28873 21.7288C5.32123 21.6525 5.43873 21.6313 5.54748 21.6825C5.65623 21.73 5.71873 21.8325 5.68123 21.9075Z" fill="#490973"/>
<path d="M6.28874 22.5852C6.21749 22.6514 6.07749 22.6202 5.98249 22.5164C5.88374 22.4114 5.86624 22.2714 5.93874 22.2052C6.01249 22.1389 6.14749 22.1702 6.24624 22.2752C6.34499 22.3789 6.36374 22.5177 6.28874 22.5852Z" fill="#490973"/>
<path d="M6.88002 23.4488C6.78752 23.5126 6.63752 23.4526 6.54502 23.3201C6.45252 23.1863 6.45252 23.0263 6.54752 22.9626C6.64002 22.8988 6.78877 22.9563 6.88252 23.0888C6.97377 23.2238 6.97377 23.3838 6.88002 23.4488Z" fill="#490973"/>
<path d="M7.69 24.2838C7.6075 24.375 7.4325 24.35 7.305 24.2263C7.17375 24.105 7.1375 23.9338 7.22 23.8425C7.30375 23.7513 7.48 23.7775 7.60875 23.9C7.73875 24.0213 7.7775 24.1938 7.69 24.2838Z" fill="#490973"/>
<path d="M8.80872 24.7676C8.77247 24.8851 8.60372 24.9388 8.43372 24.8888C8.26372 24.8376 8.15247 24.7001 8.18747 24.5813C8.22247 24.4626 8.39247 24.4076 8.56372 24.4613C8.73247 24.5113 8.84372 24.6488 8.80872 24.7676Z" fill="#490973"/>
<path d="M10.0362 24.8575C10.04 24.9813 9.89624 25.0838 9.71749 25.0863C9.53874 25.09 9.39249 24.99 9.39124 24.8688C9.39124 24.7438 9.53249 24.6425 9.71124 24.6388C9.88999 24.635 10.0362 24.735 10.0362 24.8575Z" fill="#490973"/>
<path d="M11.1788 24.6639C11.2 24.7839 11.0763 24.9089 10.8988 24.9414C10.725 24.9739 10.5638 24.8989 10.5413 24.7789C10.52 24.6552 10.6463 24.5314 10.82 24.4989C10.9963 24.4677 11.1563 24.5402 11.1788 24.6639Z" fill="#490973"/>
</g>
<defs>
<clipPath id="clip0_23_50">
<rect width="30" height="30" fill="white"/>
</clipPath>
</defs>
</svg>
