<svg width="159" height="41" viewBox="0 0 159 41" fill="none" xmlns="http://www.w3.org/2000/svg">
<path d="M1.924 25V6.54H9.75C10.5993 6.54 11.3793 6.71333 12.09 7.06C12.8007 7.40667 13.416 7.87467 13.936 8.464C14.4733 9.05333 14.8893 9.712 15.184 10.44C15.4787 11.168 15.626 11.9133 15.626 12.676C15.626 13.716 15.3833 14.704 14.898 15.64C14.4127 16.576 13.7453 17.3387 12.896 17.928C12.0467 18.5173 11.0413 18.812 9.88 18.812H5.512V25H1.924ZM5.512 15.666H9.672C10.1053 15.666 10.4953 15.5447 10.842 15.302C11.1887 15.0593 11.466 14.7127 11.674 14.262C11.882 13.794 11.986 13.2653 11.986 12.676C11.986 12.0347 11.8647 11.4887 11.622 11.038C11.3967 10.5873 11.0933 10.2493 10.712 10.024C10.348 9.79867 9.94933 9.686 9.516 9.686H5.512V15.666ZM16.6715 20.97C16.6715 20.086 16.9142 19.3147 17.3995 18.656C17.9022 17.98 18.5955 17.46 19.4795 17.096C20.3635 16.732 21.3775 16.55 22.5215 16.55C23.0935 16.55 23.6742 16.5933 24.2635 16.68C24.8528 16.7667 25.3642 16.9053 25.7975 17.096V16.368C25.7975 15.5013 25.5375 14.834 25.0175 14.366C24.5148 13.898 23.7608 13.664 22.7555 13.664C22.0102 13.664 21.2995 13.794 20.6235 14.054C19.9475 14.314 19.2368 14.6953 18.4915 15.198L17.3735 12.91C18.2748 12.3207 19.1935 11.8787 20.1295 11.584C21.0828 11.2893 22.0795 11.142 23.1195 11.142C25.0608 11.142 26.5688 11.6273 27.6435 12.598C28.7355 13.5687 29.2815 14.9553 29.2815 16.758V21.1C29.2815 21.464 29.3422 21.724 29.4635 21.88C29.6022 22.036 29.8188 22.1313 30.1135 22.166V25C29.8015 25.052 29.5155 25.0953 29.2555 25.13C29.0128 25.1647 28.8048 25.182 28.6315 25.182C27.9382 25.182 27.4095 25.026 27.0455 24.714C26.6988 24.402 26.4822 24.0207 26.3955 23.57L26.3175 22.868C25.7282 23.6307 24.9915 24.22 24.1075 24.636C23.2235 25.052 22.3222 25.26 21.4035 25.26C20.5022 25.26 19.6875 25.078 18.9595 24.714C18.2488 24.3327 17.6855 23.8213 17.2695 23.18C16.8708 22.5213 16.6715 21.7847 16.6715 20.97ZM25.1475 21.672C25.3382 21.464 25.4942 21.256 25.6155 21.048C25.7368 20.84 25.7975 20.6493 25.7975 20.476V19.098C25.3815 18.9247 24.9308 18.7947 24.4455 18.708C23.9602 18.604 23.5008 18.552 23.0675 18.552C22.1662 18.552 21.4208 18.7513 20.8315 19.15C20.2595 19.5313 19.9735 20.0427 19.9735 20.684C19.9735 21.0307 20.0688 21.36 20.2595 21.672C20.4502 21.984 20.7275 22.2353 21.0915 22.426C21.4555 22.6167 21.8888 22.712 22.3915 22.712C22.9115 22.712 23.4228 22.6167 23.9255 22.426C24.4282 22.218 24.8355 21.9667 25.1475 21.672ZM32.4072 19.904V11.376H35.8912V19.15C35.8912 20.19 36.0818 20.9787 36.4632 21.516C36.8445 22.036 37.4078 22.296 38.1532 22.296C38.6038 22.296 39.0458 22.2093 39.4792 22.036C39.9298 21.8453 40.3372 21.568 40.7012 21.204C41.0825 20.84 41.4032 20.3807 41.6632 19.826V11.376H45.1472V21.1C45.1472 21.464 45.2078 21.724 45.3292 21.88C45.4678 22.036 45.6845 22.1313 45.9792 22.166V25C45.6325 25.052 45.3378 25.0867 45.0952 25.104C44.8698 25.1387 44.6618 25.156 44.4712 25.156C43.8472 25.156 43.3358 25.0173 42.9372 24.74C42.5558 24.4453 42.3305 24.0467 42.2612 23.544L42.1832 22.452C41.5765 23.3707 40.7965 24.0727 39.8432 24.558C38.8898 25.026 37.8412 25.26 36.6972 25.26C35.2932 25.26 34.2272 24.8093 33.4992 23.908C32.7712 22.9893 32.4072 21.6547 32.4072 19.904ZM48.5834 6.02H52.0674V20.632C52.0674 21.256 52.1714 21.6807 52.3794 21.906C52.5874 22.114 52.8734 22.218 53.2374 22.218C53.5148 22.218 53.8008 22.1833 54.0954 22.114C54.3901 22.0447 54.6501 21.958 54.8754 21.854L55.3434 24.506C54.8754 24.7313 54.3294 24.9047 53.7054 25.026C53.0814 25.1473 52.5181 25.208 52.0154 25.208C50.9234 25.208 50.0741 24.922 49.4674 24.35C48.8781 23.7607 48.5834 22.9287 48.5834 21.854V6.02ZM55.9254 20.97C55.9254 20.086 56.1681 19.3147 56.6534 18.656C57.1561 17.98 57.8494 17.46 58.7334 17.096C59.6174 16.732 60.6314 16.55 61.7754 16.55C62.3474 16.55 62.9281 16.5933 63.5174 16.68C64.1067 16.7667 64.6181 16.9053 65.0514 17.096V16.368C65.0514 15.5013 64.7914 14.834 64.2714 14.366C63.7687 13.898 63.0147 13.664 62.0094 13.664C61.2641 13.664 60.5534 13.794 59.8774 14.054C59.2014 14.314 58.4907 14.6953 57.7454 15.198L56.6274 12.91C57.5287 12.3207 58.4474 11.8787 59.3834 11.584C60.3367 11.2893 61.3334 11.142 62.3734 11.142C64.3147 11.142 65.8227 11.6273 66.8974 12.598C67.9894 13.5687 68.5354 14.9553 68.5354 16.758V21.1C68.5354 21.464 68.5961 21.724 68.7174 21.88C68.8561 22.036 69.0727 22.1313 69.3674 22.166V25C69.0554 25.052 68.7694 25.0953 68.5094 25.13C68.2667 25.1647 68.0587 25.182 67.8854 25.182C67.1921 25.182 66.6634 25.026 66.2994 24.714C65.9527 24.402 65.7361 24.0207 65.6494 23.57L65.5714 22.868C64.9821 23.6307 64.2454 24.22 63.3614 24.636C62.4774 25.052 61.5761 25.26 60.6574 25.26C59.7561 25.26 58.9414 25.078 58.2134 24.714C57.5027 24.3327 56.9394 23.8213 56.5234 23.18C56.1247 22.5213 55.9254 21.7847 55.9254 20.97ZM64.4014 21.672C64.5921 21.464 64.7481 21.256 64.8694 21.048C64.9907 20.84 65.0514 20.6493 65.0514 20.476V19.098C64.6354 18.9247 64.1847 18.7947 63.6994 18.708C63.2141 18.604 62.7547 18.552 62.3214 18.552C61.4201 18.552 60.6747 18.7513 60.0854 19.15C59.5134 19.5313 59.2274 20.0427 59.2274 20.684C59.2274 21.0307 59.3227 21.36 59.5134 21.672C59.7041 21.984 59.9814 22.2353 60.3454 22.426C60.7094 22.6167 61.1427 22.712 61.6454 22.712C62.1654 22.712 62.6767 22.6167 63.1794 22.426C63.6821 22.218 64.0894 21.9667 64.4014 21.672ZM93.2472 20.242C93.2472 21.282 92.9785 22.1573 92.4412 22.868C91.9038 23.5613 91.1758 24.09 90.2572 24.454C89.3558 24.818 88.3678 25 87.2932 25H78.3752V6.54H88.2552C89.1218 6.54 89.8672 6.774 90.4912 7.242C91.1325 7.69267 91.6178 8.282 91.9472 9.01C92.2938 9.72067 92.4672 10.466 92.4672 11.246C92.4672 12.13 92.2418 12.9707 91.7912 13.768C91.3405 14.5653 90.6818 15.1547 89.8152 15.536C90.8725 15.848 91.7045 16.4113 92.3112 17.226C92.9352 18.0407 93.2472 19.046 93.2472 20.242ZM89.6332 19.566C89.6332 19.098 89.5378 18.682 89.3472 18.318C89.1565 17.9367 88.8965 17.642 88.5672 17.434C88.2552 17.2087 87.8912 17.096 87.4752 17.096H81.9632V21.958H87.2932C87.7265 21.958 88.1165 21.854 88.4632 21.646C88.8272 21.4207 89.1132 21.126 89.3212 20.762C89.5292 20.398 89.6332 19.9993 89.6332 19.566ZM81.9632 9.608V14.262H86.7472C87.1458 14.262 87.5098 14.1667 87.8392 13.976C88.1685 13.7853 88.4285 13.5167 88.6192 13.17C88.8272 12.8233 88.9312 12.4073 88.9312 11.922C88.9312 11.454 88.8358 11.0467 88.6452 10.7C88.4718 10.3533 88.2292 10.0847 87.9172 9.894C87.6225 9.70333 87.2845 9.608 86.9032 9.608H81.9632ZM103.821 14.392C102.764 14.392 101.819 14.6 100.987 15.016C100.155 15.4147 99.557 15.9953 99.193 16.758V25H95.709V11.376H98.907V14.288C99.3924 13.352 100.008 12.6153 100.753 12.078C101.498 11.5407 102.287 11.246 103.119 11.194C103.31 11.194 103.457 11.194 103.561 11.194C103.665 11.194 103.752 11.2027 103.821 11.22V14.392ZM104.752 20.97C104.752 20.086 104.994 19.3147 105.48 18.656C105.982 17.98 106.676 17.46 107.56 17.096C108.444 16.732 109.458 16.55 110.602 16.55C111.174 16.55 111.754 16.5933 112.344 16.68C112.933 16.7667 113.444 16.9053 113.878 17.096V16.368C113.878 15.5013 113.618 14.834 113.098 14.366C112.595 13.898 111.841 13.664 110.836 13.664C110.09 13.664 109.38 13.794 108.704 14.054C108.028 14.314 107.317 14.6953 106.572 15.198L105.454 12.91C106.355 12.3207 107.274 11.8787 108.21 11.584C109.163 11.2893 110.16 11.142 111.2 11.142C113.141 11.142 114.649 11.6273 115.724 12.598C116.816 13.5687 117.362 14.9553 117.362 16.758V21.1C117.362 21.464 117.422 21.724 117.544 21.88C117.682 22.036 117.899 22.1313 118.194 22.166V25C117.882 25.052 117.596 25.0953 117.336 25.13C117.093 25.1647 116.885 25.182 116.712 25.182C116.018 25.182 115.49 25.026 115.126 24.714C114.779 24.402 114.562 24.0207 114.476 23.57L114.398 22.868C113.808 23.6307 113.072 24.22 112.188 24.636C111.304 25.052 110.402 25.26 109.484 25.26C108.582 25.26 107.768 25.078 107.04 24.714C106.329 24.3327 105.766 23.8213 105.35 23.18C104.951 22.5213 104.752 21.7847 104.752 20.97ZM113.228 21.672C113.418 21.464 113.574 21.256 113.696 21.048C113.817 20.84 113.878 20.6493 113.878 20.476V19.098C113.462 18.9247 113.011 18.7947 112.526 18.708C112.04 18.604 111.581 18.552 111.148 18.552C110.246 18.552 109.501 18.7513 108.912 19.15C108.34 19.5313 108.054 20.0427 108.054 20.684C108.054 21.0307 108.149 21.36 108.34 21.672C108.53 21.984 108.808 22.2353 109.172 22.426C109.536 22.6167 109.969 22.712 110.472 22.712C110.992 22.712 111.503 22.6167 112.006 22.426C112.508 22.218 112.916 21.9667 113.228 21.672ZM125.947 25.078C125.046 25.078 124.214 24.9047 123.451 24.558C122.706 24.194 122.056 23.6913 121.501 23.05C120.964 22.4087 120.548 21.672 120.253 20.84C119.959 20.008 119.811 19.124 119.811 18.188C119.811 17.2 119.967 16.2813 120.279 15.432C120.591 14.5827 121.025 13.8373 121.579 13.196C122.151 12.5373 122.819 12.0347 123.581 11.688C124.361 11.324 125.219 11.142 126.155 11.142C127.213 11.142 128.14 11.3847 128.937 11.87C129.735 12.338 130.393 12.9707 130.913 13.768V11.376H133.955V24.35C133.955 25.702 133.626 26.8547 132.967 27.808C132.326 28.7787 131.433 29.5153 130.289 30.018C129.145 30.538 127.845 30.798 126.389 30.798C124.916 30.798 123.668 30.5467 122.645 30.044C121.623 29.5587 120.747 28.8653 120.019 27.964L121.917 26.118C122.437 26.7593 123.087 27.262 123.867 27.626C124.665 27.99 125.505 28.172 126.389 28.172C127.135 28.172 127.811 28.0333 128.417 27.756C129.041 27.496 129.535 27.08 129.899 26.508C130.281 25.9533 130.471 25.234 130.471 24.35V22.634C130.021 23.414 129.379 24.0207 128.547 24.454C127.733 24.87 126.866 25.078 125.947 25.078ZM127.117 22.296C127.499 22.296 127.863 22.2353 128.209 22.114C128.556 21.9927 128.877 21.828 129.171 21.62C129.466 21.412 129.726 21.1693 129.951 20.892C130.177 20.5973 130.35 20.3027 130.471 20.008V16.758C130.263 16.2207 129.969 15.7527 129.587 15.354C129.223 14.9553 128.807 14.652 128.339 14.444C127.889 14.2187 127.412 14.106 126.909 14.106C126.372 14.106 125.887 14.2187 125.453 14.444C125.02 14.6693 124.647 14.99 124.335 15.406C124.023 15.8047 123.781 16.2553 123.607 16.758C123.451 17.2433 123.373 17.7547 123.373 18.292C123.373 18.8467 123.469 19.3667 123.659 19.852C123.85 20.3373 124.11 20.762 124.439 21.126C124.786 21.49 125.185 21.776 125.635 21.984C126.103 22.192 126.597 22.296 127.117 22.296ZM136.16 20.97C136.16 20.086 136.402 19.3147 136.888 18.656C137.39 17.98 138.084 17.46 138.968 17.096C139.852 16.732 140.866 16.55 142.01 16.55C142.582 16.55 143.162 16.5933 143.752 16.68C144.341 16.7667 144.852 16.9053 145.286 17.096V16.368C145.286 15.5013 145.026 14.834 144.506 14.366C144.003 13.898 143.249 13.664 142.244 13.664C141.498 13.664 140.788 13.794 140.112 14.054C139.436 14.314 138.725 14.6953 137.98 15.198L136.862 12.91C137.763 12.3207 138.682 11.8787 139.618 11.584C140.571 11.2893 141.568 11.142 142.608 11.142C144.549 11.142 146.057 11.6273 147.132 12.598C148.224 13.5687 148.77 14.9553 148.77 16.758V21.1C148.77 21.464 148.83 21.724 148.952 21.88C149.09 22.036 149.307 22.1313 149.602 22.166V25C149.29 25.052 149.004 25.0953 148.744 25.13C148.501 25.1647 148.293 25.182 148.12 25.182C147.426 25.182 146.898 25.026 146.534 24.714C146.187 24.402 145.97 24.0207 145.884 23.57L145.806 22.868C145.216 23.6307 144.48 24.22 143.596 24.636C142.712 25.052 141.81 25.26 140.892 25.26C139.99 25.26 139.176 25.078 138.448 24.714C137.737 24.3327 137.174 23.8213 136.758 23.18C136.359 22.5213 136.16 21.7847 136.16 20.97ZM144.636 21.672C144.826 21.464 144.982 21.256 145.104 21.048C145.225 20.84 145.286 20.6493 145.286 20.476V19.098C144.87 18.9247 144.419 18.7947 143.934 18.708C143.448 18.604 142.989 18.552 142.556 18.552C141.654 18.552 140.909 18.7513 140.32 19.15C139.748 19.5313 139.462 20.0427 139.462 20.684C139.462 21.0307 139.557 21.36 139.748 21.672C139.938 21.984 140.216 22.2353 140.58 22.426C140.944 22.6167 141.377 22.712 141.88 22.712C142.4 22.712 142.911 22.6167 143.414 22.426C143.916 22.218 144.324 21.9667 144.636 21.672Z" fill="#F2EDD5"/>
<path d="M1.068 38V29.48H3.96C4.864 29.48 5.616 29.672 6.216 30.056C6.824 30.432 7.28 30.944 7.584 31.592C7.888 32.232 8.04 32.944 8.04 33.728C8.04 34.592 7.872 35.344 7.536 35.984C7.208 36.624 6.736 37.12 6.12 37.472C5.512 37.824 4.792 38 3.96 38H1.068ZM7.2 33.728C7.2 33.048 7.072 32.444 6.816 31.916C6.568 31.388 6.204 30.976 5.724 30.68C5.244 30.376 4.656 30.224 3.96 30.224H1.908V37.256H3.96C4.664 37.256 5.256 37.1 5.736 36.788C6.216 36.476 6.58 36.056 6.828 35.528C7.076 34.992 7.2 34.392 7.2 33.728ZM12.1781 38.12C11.7301 38.12 11.3141 38.036 10.9301 37.868C10.5461 37.692 10.2141 37.456 9.93413 37.16C9.65413 36.856 9.43413 36.508 9.27413 36.116C9.12213 35.724 9.04613 35.304 9.04613 34.856C9.04613 34.272 9.17813 33.736 9.44213 33.248C9.71413 32.76 10.0861 32.372 10.5581 32.084C11.0301 31.788 11.5661 31.64 12.1661 31.64C12.7821 31.64 13.3181 31.788 13.7741 32.084C14.2381 32.38 14.6021 32.772 14.8661 33.26C15.1301 33.74 15.2621 34.268 15.2621 34.844C15.2621 34.908 15.2621 34.972 15.2621 35.036C15.2621 35.092 15.2581 35.136 15.2501 35.168H9.89813C9.93813 35.616 10.0621 36.016 10.2701 36.368C10.4861 36.712 10.7621 36.988 11.0981 37.196C11.4421 37.396 11.8141 37.496 12.2141 37.496C12.6221 37.496 13.0061 37.392 13.3661 37.184C13.7341 36.976 13.9901 36.704 14.1341 36.368L14.8421 36.56C14.7141 36.856 14.5181 37.124 14.2541 37.364C13.9901 37.604 13.6781 37.792 13.3181 37.928C12.9661 38.056 12.5861 38.12 12.1781 38.12ZM9.87413 34.58H14.4941C14.4621 34.124 14.3381 33.724 14.1221 33.38C13.9141 33.036 13.6381 32.768 13.2941 32.576C12.9581 32.376 12.5861 32.276 12.1781 32.276C11.7701 32.276 11.3981 32.376 11.0621 32.576C10.7261 32.768 10.4501 33.04 10.2341 33.392C10.0261 33.736 9.90613 34.132 9.87413 34.58ZM18.5731 38.12C18.0611 38.12 17.5851 38.036 17.1451 37.868C16.7051 37.7 16.3251 37.444 16.0051 37.1L16.3411 36.524C16.6931 36.852 17.0451 37.092 17.3971 37.244C17.7571 37.388 18.1371 37.46 18.5371 37.46C19.0251 37.46 19.4211 37.364 19.7251 37.172C20.0291 36.972 20.1811 36.688 20.1811 36.32C20.1811 36.072 20.1051 35.884 19.9531 35.756C19.8091 35.62 19.5971 35.512 19.3171 35.432C19.0451 35.344 18.7171 35.252 18.3331 35.156C17.9011 35.036 17.5371 34.912 17.2411 34.784C16.9531 34.648 16.7331 34.48 16.5811 34.28C16.4371 34.072 16.3651 33.804 16.3651 33.476C16.3651 33.068 16.4651 32.732 16.6651 32.468C16.8731 32.196 17.1531 31.992 17.5051 31.856C17.8651 31.712 18.2651 31.64 18.7051 31.64C19.1851 31.64 19.6091 31.716 19.9771 31.868C20.3451 32.02 20.6451 32.232 20.8771 32.504L20.4811 33.056C20.2571 32.8 19.9891 32.612 19.6771 32.492C19.3731 32.364 19.0331 32.3 18.6571 32.3C18.4011 32.3 18.1571 32.336 17.9251 32.408C17.6931 32.472 17.5011 32.584 17.3491 32.744C17.2051 32.896 17.1331 33.108 17.1331 33.38C17.1331 33.604 17.1891 33.78 17.3011 33.908C17.4131 34.028 17.5811 34.132 17.8051 34.22C18.0291 34.3 18.3051 34.388 18.6331 34.484C19.1051 34.612 19.5171 34.744 19.8691 34.88C20.2211 35.008 20.4931 35.176 20.6851 35.384C20.8771 35.592 20.9731 35.884 20.9731 36.26C20.9731 36.844 20.7531 37.3 20.3131 37.628C19.8731 37.956 19.2931 38.12 18.5731 38.12ZM25.0219 38.12C24.5739 38.12 24.1579 38.036 23.7739 37.868C23.3899 37.692 23.0579 37.456 22.7779 37.16C22.4979 36.856 22.2779 36.508 22.1179 36.116C21.9659 35.724 21.8899 35.304 21.8899 34.856C21.8899 34.272 22.0219 33.736 22.2859 33.248C22.5579 32.76 22.9299 32.372 23.4019 32.084C23.8739 31.788 24.4099 31.64 25.0099 31.64C25.6259 31.64 26.1619 31.788 26.6179 32.084C27.0819 32.38 27.4459 32.772 27.7099 33.26C27.9739 33.74 28.1059 34.268 28.1059 34.844C28.1059 34.908 28.1059 34.972 28.1059 35.036C28.1059 35.092 28.1019 35.136 28.0939 35.168H22.7419C22.7819 35.616 22.9059 36.016 23.1139 36.368C23.3299 36.712 23.6059 36.988 23.9419 37.196C24.2859 37.396 24.6579 37.496 25.0579 37.496C25.4659 37.496 25.8499 37.392 26.2099 37.184C26.5779 36.976 26.8339 36.704 26.9779 36.368L27.6859 36.56C27.5579 36.856 27.3619 37.124 27.0979 37.364C26.8339 37.604 26.5219 37.792 26.1619 37.928C25.8099 38.056 25.4299 38.12 25.0219 38.12ZM22.7179 34.58H27.3379C27.3059 34.124 27.1819 33.724 26.9659 33.38C26.7579 33.036 26.4819 32.768 26.1379 32.576C25.8019 32.376 25.4299 32.276 25.0219 32.276C24.6139 32.276 24.2419 32.376 23.9059 32.576C23.5699 32.768 23.2939 33.04 23.0779 33.392C22.8699 33.736 22.7499 34.132 22.7179 34.58ZM34.6208 38H33.8048V34.508C33.8048 33.772 33.6968 33.236 33.4808 32.9C33.2648 32.556 32.9248 32.384 32.4608 32.384C32.1408 32.384 31.8248 32.464 31.5128 32.624C31.2008 32.776 30.9248 32.988 30.6848 33.26C30.4528 33.524 30.2848 33.828 30.1808 34.172V38H29.3648V31.748H30.1088V33.164C30.2768 32.86 30.4968 32.596 30.7688 32.372C31.0408 32.14 31.3488 31.96 31.6928 31.832C32.0368 31.704 32.3928 31.64 32.7608 31.64C33.1048 31.64 33.3968 31.704 33.6368 31.832C33.8768 31.96 34.0688 32.144 34.2128 32.384C34.3568 32.616 34.4608 32.9 34.5248 33.236C34.5888 33.564 34.6208 33.932 34.6208 34.34V38ZM38.092 38L35.56 31.748H36.412L38.548 37.184L40.696 31.748H41.5L38.968 38H38.092ZM45.0835 38.12C44.6355 38.12 44.2195 38.036 43.8355 37.868C43.4595 37.692 43.1315 37.456 42.8515 37.16C42.5795 36.856 42.3675 36.512 42.2155 36.128C42.0635 35.736 41.9875 35.324 41.9875 34.892C41.9875 34.444 42.0635 34.028 42.2155 33.644C42.3675 33.252 42.5835 32.908 42.8635 32.612C43.1435 32.308 43.4715 32.072 43.8475 31.904C44.2315 31.728 44.6475 31.64 45.0955 31.64C45.5435 31.64 45.9555 31.728 46.3315 31.904C46.7075 32.072 47.0355 32.308 47.3155 32.612C47.5955 32.908 47.8115 33.252 47.9635 33.644C48.1155 34.028 48.1915 34.444 48.1915 34.892C48.1915 35.324 48.1155 35.736 47.9635 36.128C47.8115 36.512 47.5955 36.856 47.3155 37.16C47.0435 37.456 46.7155 37.692 46.3315 37.868C45.9555 38.036 45.5395 38.12 45.0835 38.12ZM42.8155 34.904C42.8155 35.368 42.9155 35.792 43.1155 36.176C43.3235 36.552 43.5995 36.852 43.9435 37.076C44.2875 37.292 44.6675 37.4 45.0835 37.4C45.4995 37.4 45.8795 37.288 46.2235 37.064C46.5675 36.84 46.8435 36.536 47.0515 36.152C47.2595 35.76 47.3635 35.336 47.3635 34.88C47.3635 34.416 47.2595 33.992 47.0515 33.608C46.8435 33.224 46.5675 32.92 46.2235 32.696C45.8795 32.472 45.4995 32.36 45.0835 32.36C44.6675 32.36 44.2875 32.476 43.9435 32.708C43.6075 32.94 43.3355 33.248 43.1275 33.632C42.9195 34.008 42.8155 34.432 42.8155 34.904ZM49.5923 29.24H50.4083V36.584C50.4083 36.896 50.4643 37.1 50.5763 37.196C50.6883 37.292 50.8243 37.34 50.9843 37.34C51.1283 37.34 51.2723 37.324 51.4163 37.292C51.5603 37.26 51.6843 37.228 51.7883 37.196L51.9323 37.856C51.7803 37.92 51.5923 37.972 51.3683 38.012C51.1523 38.052 50.9643 38.072 50.8043 38.072C50.4363 38.072 50.1403 37.964 49.9163 37.748C49.7003 37.532 49.5923 37.236 49.5923 36.86V29.24ZM54.4748 38L51.9428 31.748H52.7948L54.9308 37.184L57.0788 31.748H57.8828L55.3508 38H54.4748ZM61.5023 38.12C61.0543 38.12 60.6383 38.036 60.2543 37.868C59.8703 37.692 59.5383 37.456 59.2583 37.16C58.9783 36.856 58.7583 36.508 58.5983 36.116C58.4463 35.724 58.3703 35.304 58.3703 34.856C58.3703 34.272 58.5023 33.736 58.7663 33.248C59.0383 32.76 59.4103 32.372 59.8823 32.084C60.3543 31.788 60.8903 31.64 61.4903 31.64C62.1063 31.64 62.6423 31.788 63.0983 32.084C63.5623 32.38 63.9263 32.772 64.1903 33.26C64.4543 33.74 64.5863 34.268 64.5863 34.844C64.5863 34.908 64.5863 34.972 64.5863 35.036C64.5863 35.092 64.5823 35.136 64.5743 35.168H59.2223C59.2623 35.616 59.3863 36.016 59.5943 36.368C59.8103 36.712 60.0863 36.988 60.4223 37.196C60.7663 37.396 61.1383 37.496 61.5383 37.496C61.9463 37.496 62.3303 37.392 62.6903 37.184C63.0583 36.976 63.3143 36.704 63.4583 36.368L64.1663 36.56C64.0383 36.856 63.8423 37.124 63.5783 37.364C63.3143 37.604 63.0023 37.792 62.6423 37.928C62.2903 38.056 61.9103 38.12 61.5023 38.12ZM59.1983 34.58H63.8183C63.7863 34.124 63.6623 33.724 63.4463 33.38C63.2383 33.036 62.9623 32.768 62.6183 32.576C62.2823 32.376 61.9103 32.276 61.5023 32.276C61.0943 32.276 60.7223 32.376 60.3863 32.576C60.0503 32.768 59.7743 33.04 59.5583 33.392C59.3503 33.736 59.2303 34.132 59.1983 34.58ZM65.4253 34.892C65.4253 34.3 65.5453 33.76 65.7853 33.272C66.0333 32.776 66.3733 32.38 66.8053 32.084C67.2373 31.788 67.7293 31.64 68.2813 31.64C68.8013 31.64 69.2653 31.78 69.6733 32.06C70.0893 32.332 70.4133 32.664 70.6453 33.056V29.24H71.4613V37.016C71.4613 37.128 71.4853 37.212 71.5333 37.268C71.5813 37.316 71.6533 37.344 71.7493 37.352V38C71.5893 38.024 71.4653 38.032 71.3773 38.024C71.2093 38.016 71.0613 37.948 70.9333 37.82C70.8053 37.692 70.7413 37.552 70.7413 37.4V36.788C70.4933 37.196 70.1573 37.52 69.7333 37.76C69.3093 38 68.8693 38.12 68.4133 38.12C67.9813 38.12 67.5813 38.032 67.2133 37.856C66.8533 37.68 66.5373 37.44 66.2653 37.136C66.0013 36.832 65.7933 36.488 65.6413 36.104C65.4973 35.712 65.4253 35.308 65.4253 34.892ZM70.6453 35.852V33.92C70.5413 33.632 70.3733 33.372 70.1413 33.14C69.9093 32.9 69.6453 32.712 69.3493 32.576C69.0613 32.432 68.7733 32.36 68.4853 32.36C68.1493 32.36 67.8453 32.432 67.5733 32.576C67.3013 32.712 67.0653 32.9 66.8653 33.14C66.6733 33.38 66.5253 33.652 66.4213 33.956C66.3173 34.26 66.2653 34.572 66.2653 34.892C66.2653 35.228 66.3213 35.548 66.4333 35.852C66.5533 36.156 66.7213 36.428 66.9373 36.668C67.1533 36.9 67.4013 37.08 67.6813 37.208C67.9613 37.336 68.2653 37.4 68.5933 37.4C68.8013 37.4 69.0173 37.36 69.2413 37.28C69.4653 37.2 69.6773 37.092 69.8773 36.956C70.0853 36.812 70.2573 36.644 70.3933 36.452C70.5293 36.26 70.6133 36.06 70.6453 35.852ZM75.9742 38.12C75.5262 38.12 75.1102 38.036 74.7262 37.868C74.3502 37.692 74.0222 37.456 73.7422 37.16C73.4702 36.856 73.2582 36.512 73.1062 36.128C72.9542 35.736 72.8782 35.324 72.8782 34.892C72.8782 34.444 72.9542 34.028 73.1062 33.644C73.2582 33.252 73.4742 32.908 73.7542 32.612C74.0342 32.308 74.3622 32.072 74.7382 31.904C75.1222 31.728 75.5382 31.64 75.9862 31.64C76.4342 31.64 76.8462 31.728 77.2222 31.904C77.5982 32.072 77.9262 32.308 78.2062 32.612C78.4862 32.908 78.7022 33.252 78.8542 33.644C79.0062 34.028 79.0822 34.444 79.0822 34.892C79.0822 35.324 79.0062 35.736 78.8542 36.128C78.7022 36.512 78.4862 36.856 78.2062 37.16C77.9342 37.456 77.6062 37.692 77.2222 37.868C76.8462 38.036 76.4302 38.12 75.9742 38.12ZM73.7062 34.904C73.7062 35.368 73.8062 35.792 74.0062 36.176C74.2142 36.552 74.4902 36.852 74.8342 37.076C75.1782 37.292 75.5582 37.4 75.9742 37.4C76.3902 37.4 76.7702 37.288 77.1142 37.064C77.4582 36.84 77.7342 36.536 77.9422 36.152C78.1502 35.76 78.2542 35.336 78.2542 34.88C78.2542 34.416 78.1502 33.992 77.9422 33.608C77.7342 33.224 77.4582 32.92 77.1142 32.696C76.7702 32.472 76.3902 32.36 75.9742 32.36C75.5582 32.36 75.1782 32.476 74.8342 32.708C74.4982 32.94 74.2262 33.248 74.0182 33.632C73.8102 34.008 73.7062 34.432 73.7062 34.904ZM83.5669 32.468C83.0229 32.484 82.5429 32.636 82.1269 32.924C81.7189 33.212 81.4309 33.608 81.2629 34.112V38H80.4469V31.748H81.2149V33.248C81.4309 32.808 81.7149 32.452 82.0669 32.18C82.4269 31.908 82.8069 31.756 83.2069 31.724C83.2869 31.716 83.3549 31.712 83.4109 31.712C83.4749 31.712 83.5269 31.716 83.5669 31.724V32.468ZM84.1265 36.2C84.1265 35.808 84.2385 35.472 84.4625 35.192C84.6865 34.904 84.9945 34.684 85.3865 34.532C85.7865 34.372 86.2465 34.292 86.7665 34.292C87.0705 34.292 87.3865 34.316 87.7145 34.364C88.0425 34.412 88.3345 34.484 88.5905 34.58V34.052C88.5905 33.524 88.4345 33.104 88.1225 32.792C87.8105 32.48 87.3785 32.324 86.8265 32.324C86.4905 32.324 86.1585 32.388 85.8305 32.516C85.5105 32.636 85.1745 32.816 84.8225 33.056L84.5105 32.48C84.9185 32.2 85.3185 31.992 85.7105 31.856C86.1025 31.712 86.5025 31.64 86.9105 31.64C87.6785 31.64 88.2865 31.86 88.7345 32.3C89.1825 32.74 89.4065 33.348 89.4065 34.124V37.016C89.4065 37.128 89.4305 37.212 89.4785 37.268C89.5265 37.316 89.6025 37.344 89.7065 37.352V38C89.6185 38.008 89.5425 38.016 89.4785 38.024C89.4145 38.032 89.3665 38.032 89.3345 38.024C89.1345 38.016 88.9825 37.952 88.8785 37.832C88.7745 37.712 88.7185 37.584 88.7105 37.448L88.6985 36.992C88.4185 37.352 88.0545 37.632 87.6065 37.832C87.1585 38.024 86.7025 38.12 86.2385 38.12C85.8385 38.12 85.4745 38.036 85.1465 37.868C84.8265 37.692 84.5745 37.46 84.3905 37.172C84.2145 36.876 84.1265 36.552 84.1265 36.2ZM88.3145 36.68C88.4025 36.568 88.4705 36.46 88.5185 36.356C88.5665 36.252 88.5905 36.16 88.5905 36.08V35.168C88.3185 35.064 88.0345 34.984 87.7385 34.928C87.4505 34.872 87.1585 34.844 86.8625 34.844C86.2785 34.844 85.8065 34.96 85.4465 35.192C85.0865 35.424 84.9065 35.74 84.9065 36.14C84.9065 36.372 84.9665 36.592 85.0865 36.8C85.2065 37 85.3825 37.168 85.6145 37.304C85.8465 37.432 86.1185 37.496 86.4305 37.496C86.8225 37.496 87.1865 37.42 87.5225 37.268C87.8665 37.116 88.1305 36.92 88.3145 36.68ZM97.1783 29.54H97.9703L99.1703 32.564L100.382 29.54H101.186L99.6983 33.176L101.33 37.028L104.414 29.48H105.326L101.714 38H100.97L99.1823 33.788L97.3823 38H96.6503L93.0503 29.48H93.9503L97.0463 37.028L98.6663 33.176L97.1783 29.54ZM108.248 38.12C107.8 38.12 107.384 38.036 107 37.868C106.616 37.692 106.284 37.456 106.004 37.16C105.724 36.856 105.504 36.508 105.344 36.116C105.192 35.724 105.116 35.304 105.116 34.856C105.116 34.272 105.248 33.736 105.512 33.248C105.784 32.76 106.156 32.372 106.628 32.084C107.1 31.788 107.636 31.64 108.236 31.64C108.852 31.64 109.388 31.788 109.844 32.084C110.308 32.38 110.672 32.772 110.936 33.26C111.2 33.74 111.332 34.268 111.332 34.844C111.332 34.908 111.332 34.972 111.332 35.036C111.332 35.092 111.328 35.136 111.32 35.168H105.968C106.008 35.616 106.132 36.016 106.34 36.368C106.556 36.712 106.832 36.988 107.168 37.196C107.512 37.396 107.884 37.496 108.284 37.496C108.692 37.496 109.076 37.392 109.436 37.184C109.804 36.976 110.06 36.704 110.204 36.368L110.912 36.56C110.784 36.856 110.588 37.124 110.324 37.364C110.06 37.604 109.748 37.792 109.388 37.928C109.036 38.056 108.656 38.12 108.248 38.12ZM105.944 34.58H110.564C110.532 34.124 110.408 33.724 110.192 33.38C109.984 33.036 109.708 32.768 109.364 32.576C109.028 32.376 108.656 32.276 108.248 32.276C107.84 32.276 107.468 32.376 107.132 32.576C106.796 32.768 106.52 33.04 106.304 33.392C106.096 33.736 105.976 34.132 105.944 34.58ZM115.651 38.12C115.163 38.12 114.711 37.996 114.295 37.748C113.879 37.492 113.555 37.172 113.323 36.788V38H112.591V29.24H113.407V33.056C113.687 32.632 114.023 32.292 114.415 32.036C114.807 31.772 115.263 31.64 115.783 31.64C116.223 31.64 116.615 31.732 116.959 31.916C117.311 32.1 117.611 32.348 117.859 32.66C118.107 32.964 118.295 33.312 118.423 33.704C118.551 34.088 118.615 34.484 118.615 34.892C118.615 35.332 118.539 35.744 118.387 36.128C118.243 36.512 118.035 36.856 117.763 37.16C117.491 37.456 117.175 37.692 116.815 37.868C116.463 38.036 116.075 38.12 115.651 38.12ZM115.459 37.4C115.795 37.4 116.107 37.332 116.395 37.196C116.683 37.06 116.931 36.872 117.139 36.632C117.347 36.392 117.507 36.124 117.619 35.828C117.731 35.524 117.787 35.212 117.787 34.892C117.787 34.452 117.691 34.04 117.499 33.656C117.315 33.264 117.055 32.952 116.719 32.72C116.391 32.48 116.003 32.36 115.555 32.36C115.235 32.36 114.935 32.432 114.655 32.576C114.383 32.72 114.139 32.912 113.923 33.152C113.715 33.384 113.543 33.64 113.407 33.92V35.864C113.439 36.08 113.523 36.284 113.659 36.476C113.795 36.66 113.963 36.82 114.163 36.956C114.371 37.092 114.587 37.2 114.811 37.28C115.035 37.36 115.251 37.4 115.459 37.4Z" fill="#F2EDD5"/>
</svg>
