<svg width="20" height="20" viewBox="0 0 20 20" fill="none" xmlns="http://www.w3.org/2000/svg">
<g clip-path="url(#clip0_4_39)">
<path d="M10.0183 19.1425C4.95331 19.1425 0.833313 15.0325 0.833313 9.98167C0.833313 5.23083 4.40415 1.31083 9.13998 0.861666C9.50915 0.819166 9.84415 1.03083 9.98581 1.365C10.1283 1.69833 10.0375 2.08667 9.76165 2.3225C8.84998 3.10417 8.40665 4.45583 8.40665 6.45333C8.40665 10.7267 10.3766 11.585 13.5558 11.585C15.6075 11.585 16.9225 11.1558 17.6958 10.235C17.9291 9.955 18.32 9.8625 18.655 10.0017C18.9916 10.1425 19.1975 10.4858 19.1625 10.8492C18.7166 15.5767 14.785 19.1417 10.0183 19.1417V19.1425ZM7.31665 2.98C4.46831 4.06 2.49998 6.79167 2.49998 9.98083C2.49998 14.1133 5.87331 17.475 10.0183 17.475C13.2116 17.475 15.9475 15.5208 17.0358 12.6917C15.8558 13.1742 14.5683 13.2525 13.555 13.2525C10.6291 13.2525 6.73915 12.5475 6.73915 6.45417C6.73915 5.07667 6.93081 3.92417 7.31665 2.98Z" fill="black"/>
</g>
<defs>
<clipPath id="clip0_4_39">
<rect width="20" height="20" fill="white"/>
</clipPath>
</defs>
</svg>
