<svg width="30" height="30" viewBox="0 0 30 30" fill="none" xmlns="http://www.w3.org/2000/svg">
<g clip-path="url(#clip0_45_1163)">
<path d="M27.3954 10.9091L4.95662 0.352836C3.68912 -0.263414 2.19537 -0.0509142 1.14662 0.891586C0.095365 1.83784 -0.269635 3.30784 0.215365 4.63534C0.236615 4.68909 5.72912 15.0053 5.72912 15.0053C5.72912 15.0053 0.337865 25.3191 0.319115 25.3716C-0.164635 26.7003 0.204115 28.1678 1.25537 29.1128C1.90662 29.6966 2.72912 29.9978 3.55662 29.9978C4.06787 29.9978 4.58037 29.8828 5.05787 29.6491L27.3979 19.1016C29.0041 18.3478 30.0016 16.7778 30.0004 15.0041C30.0004 13.2291 28.9991 11.6591 27.3954 10.9091ZM2.54037 3.70909C2.38787 3.19034 2.71287 2.84659 2.81912 2.74909C2.93037 2.65034 3.33662 2.34409 3.86662 2.60409C3.87287 2.60659 26.3341 13.1728 26.3341 13.1728C26.6329 13.3128 26.8816 13.5103 27.0729 13.7503H7.89412L2.54037 3.70909ZM26.3329 16.8391L3.97287 27.3966C3.44162 27.6578 3.03662 27.3528 2.92537 27.2516C2.81787 27.1566 2.49287 26.8103 2.64662 26.2903L7.89912 16.2503H27.0804C26.8891 16.4941 26.6354 16.6966 26.3329 16.8391Z" fill="#490973"/>
</g>
<defs>
<clipPath id="clip0_45_1163">
<rect width="30" height="30" fill="white"/>
</clipPath>
</defs>
</svg>
