<svg width="18" height="18" viewBox="0 0 18 18" fill="none" xmlns="http://www.w3.org/2000/svg">
<g clip-path="url(#clip0_13_295)">
<path d="M16.4372 6.54555L2.97398 0.211799C2.21348 -0.157951 1.31723 -0.0304509 0.687981 0.535049C0.0572312 1.1028 -0.161769 1.9848 0.129231 2.7813C0.141981 2.81355 3.43748 9.0033 3.43748 9.0033C3.43748 9.0033 0.202731 15.1915 0.191481 15.223C-0.0987688 16.0203 0.122481 16.9008 0.753231 17.4678C1.14398 17.818 1.63748 17.9988 2.13398 17.9988C2.44073 17.9988 2.74823 17.9298 3.03473 17.7895L16.4387 11.461C17.4025 11.0088 18.001 10.0668 18.0002 9.00255C18.0002 7.93755 17.3995 6.99555 16.4372 6.54555ZM1.52423 2.22555C1.43273 1.9143 1.62773 1.70805 1.69148 1.64955C1.75823 1.5903 2.00198 1.40655 2.31998 1.56255C2.32373 1.56405 15.8005 7.9038 15.8005 7.9038C15.9797 7.9878 16.129 8.1063 16.2437 8.2503H4.73648L1.52423 2.22555ZM15.7997 10.1035L2.38373 16.438C2.06498 16.5948 1.82198 16.4118 1.75523 16.351C1.69073 16.294 1.49573 16.0863 1.58798 15.7743L4.73948 9.7503H16.2482C16.1335 9.89655 15.9812 10.018 15.7997 10.1035Z" fill="#490973"/>
</g>
<defs>
<clipPath id="clip0_13_295">
<rect width="18" height="18" fill="white"/>
</clipPath>
</defs>
</svg>
