<svg width="18" height="18" viewBox="0 0 18 18" fill="none" xmlns="http://www.w3.org/2000/svg">
<g clip-path="url(#clip0_7_86)">
<path d="M16.4372 6.54549L2.97398 0.211738C2.21348 -0.158012 1.31723 -0.0305119 0.687981 0.534988C0.0572312 1.10274 -0.161769 1.98474 0.129231 2.78124C0.141981 2.81349 3.43748 9.00324 3.43748 9.00324C3.43748 9.00324 0.202731 15.1915 0.191481 15.223C-0.0987688 16.0202 0.122481 16.9007 0.753231 17.4677C1.14398 17.818 1.63748 17.9987 2.13398 17.9987C2.44073 17.9987 2.74823 17.9297 3.03473 17.7895L16.4387 11.461C17.4025 11.0087 18.001 10.0667 18.0002 9.00249C18.0002 7.93749 17.3995 6.99549 16.4372 6.54549ZM1.52423 2.22549C1.43273 1.91424 1.62773 1.70799 1.69148 1.64949C1.75823 1.59024 2.00198 1.40649 2.31998 1.56249C2.32373 1.56399 15.8005 7.90374 15.8005 7.90374C15.9797 7.98774 16.129 8.10624 16.2437 8.25024H4.73648L1.52423 2.22549ZM15.7997 10.1035L2.38373 16.438C2.06498 16.5947 1.82198 16.4117 1.75523 16.351C1.69073 16.294 1.49573 16.0862 1.58798 15.7742L4.73948 9.75024H16.2482C16.1335 9.89649 15.9812 10.018 15.7997 10.1035Z" fill="#F2EDD5"/>
</g>
<defs>
<clipPath id="clip0_7_86">
<rect width="18" height="18" fill="white"/>
</clipPath>
</defs>
</svg>
