<svg width="17" height="15" viewBox="0 0 17 15" fill="none" xmlns="http://www.w3.org/2000/svg">
<path d="M13.1042 0H3.89583C1.74746 0 0 1.68205 0 3.75V11.25C0 13.3173 1.74817 15 3.89583 15H13.1042C15.2518 15 17 13.3173 17 11.25V3.75C17 1.68205 15.2518 0 13.1042 0ZM6.72917 1.36364C7.31567 1.36364 7.79167 1.82182 7.79167 2.38636C7.79167 2.95091 7.31567 3.40909 6.72917 3.40909C6.14267 3.40909 5.66667 2.95091 5.66667 2.38636C5.66667 1.82182 6.14267 1.36364 6.72917 1.36364ZM3.1875 1.36364C3.774 1.36364 4.25 1.82182 4.25 2.38636C4.25 2.95091 3.774 3.40909 3.1875 3.40909C2.601 3.40909 2.125 2.95091 2.125 2.38636C2.125 1.82182 2.601 1.36364 3.1875 1.36364ZM14.875 11.25C14.875 12.1902 14.081 12.9545 13.1042 12.9545H3.89583C2.91904 12.9545 2.125 12.1902 2.125 11.25V4.77273H14.875V11.25ZM4.83367 10.2348C4.45187 9.86864 4.25 9.39955 4.25 8.90114C4.25 8.40273 4.45187 7.93364 4.81879 7.58114L6.00879 6.43568C6.42387 6.03614 7.09608 6.03614 7.51117 6.43568C7.92625 6.83523 7.92625 7.48227 7.51117 7.88182L6.45575 8.89773L7.46512 9.82977C7.88942 10.2205 7.90287 10.8675 7.49629 11.2752C7.09042 11.6836 6.41608 11.6959 5.99463 11.3052L4.83437 10.2341L4.83367 10.2348ZM9.48883 7.8825C9.07375 7.48295 9.07375 6.83591 9.48883 6.43636C9.90392 6.03682 10.5761 6.03682 10.9912 6.43636L12.1819 7.5825C12.5481 7.93432 12.75 8.40273 12.75 8.90182C12.75 9.40091 12.5481 9.86932 12.1812 10.2218L11.0061 11.3073C10.5846 11.698 9.90958 11.6857 9.50442 11.2773C9.09783 10.8695 9.11129 10.2225 9.53558 9.83182L10.545 8.89977L9.48954 7.88386L9.48883 7.8825Z" fill="#490973"/>
</svg>
