<svg width="17" height="17" viewBox="0 0 17 17" fill="none" xmlns="http://www.w3.org/2000/svg">
<path d="M16.0381 13.442L15.8773 13.3478C15.9141 13.1537 15.9375 12.9547 15.9375 12.75C15.9375 12.5453 15.9141 12.3462 15.8773 12.1522L16.0381 12.058C16.5445 11.7612 16.7153 11.1109 16.4192 10.6038C16.1224 10.0973 15.4721 9.928 14.9657 10.2234L14.7943 10.324C14.5053 10.0803 14.1766 9.88762 13.8132 9.758V9.5625C13.8132 8.97529 13.3379 8.5 12.7507 8.5C12.1635 8.5 11.6882 8.97529 11.6882 9.5625V9.758C11.3248 9.88762 10.9962 10.0803 10.7072 10.324L10.5358 10.2234C10.03 9.928 9.37833 10.0973 9.08225 10.6038C8.78617 11.1109 8.95617 11.7612 9.46333 12.058L9.62413 12.1522C9.58729 12.3462 9.56392 12.5453 9.56392 12.75C9.56392 12.9547 9.58729 13.1537 9.62413 13.3478L9.46333 13.442C8.95687 13.7388 8.78617 14.3891 9.08225 14.8962C9.27987 15.2341 9.63546 15.4218 10.0003 15.4218C10.1823 15.4218 10.3672 15.3751 10.5358 15.2766L10.7072 15.176C10.9962 15.4197 11.3248 15.6124 11.6882 15.742V15.9375C11.6882 16.524 12.1635 17 12.7507 17C13.3379 17 13.8132 16.524 13.8132 15.9375V15.742C14.1766 15.6124 14.5053 15.4197 14.7943 15.176L14.9657 15.2766C15.1343 15.3751 15.3191 15.4218 15.5012 15.4218C15.8667 15.4218 16.2215 15.2334 16.4192 14.8962C16.7153 14.3891 16.5453 13.7388 16.0381 13.442ZM13.8125 12.75C13.8125 13.3358 13.3358 13.8125 12.75 13.8125C12.1642 13.8125 11.6875 13.3358 11.6875 12.75C11.6875 12.1642 12.1642 11.6875 12.75 11.6875C13.3358 11.6875 13.8125 12.1642 13.8125 12.75ZM6.02083 13.4583C6.28292 13.4583 6.54004 13.4498 6.79221 13.435C7.378 13.4002 7.82496 12.8966 7.78954 12.3108C7.75413 11.7257 7.24058 11.2696 6.66542 11.3142C6.45504 11.327 6.239 11.3333 6.02012 11.3333C3.56575 11.3333 2.2355 10.5499 2.12429 10.2708V9.20904C3.22504 9.67583 4.62471 9.91667 6.02012 9.91667C9.01213 9.91667 12.041 8.82158 12.041 6.72917V3.1875C12.0417 1.09508 9.01283 0 6.02083 0C3.02883 0 0 1.09508 0 3.1875V13.8125C0 15.9049 3.02883 17 6.02083 17C6.28292 17 6.54004 16.9915 6.79221 16.9766C7.378 16.9419 7.82496 16.4383 7.78954 15.8525C7.75413 15.2674 7.24058 14.8112 6.66542 14.8559C6.45504 14.8686 6.239 14.875 6.02012 14.875C3.56575 14.875 2.2355 14.0916 2.12429 13.8125V12.7507C3.22504 13.2175 4.62471 13.4583 6.02012 13.4583H6.02083ZM6.02083 7.79167C3.56717 7.79167 2.23621 7.00825 2.125 6.72917V5.66738C3.22575 6.13417 4.62542 6.375 6.02083 6.375C7.41625 6.375 8.81875 6.13346 9.9195 5.66596L9.92092 6.69587C9.80475 7.00754 8.4745 7.79167 6.02083 7.79167ZM6.02083 2.125C8.44263 2.125 9.76508 2.88646 9.90604 3.17475C9.74808 3.49775 8.42917 4.25 6.02083 4.25C3.59904 4.25 2.27658 3.48854 2.13563 3.20025C2.29358 2.87725 3.6125 2.125 6.02083 2.125Z" fill="#490973"/>
</svg>
