<svg width="25" height="52" viewBox="0 0 25 52" fill="none" xmlns="http://www.w3.org/2000/svg">
<path d="M1.03092 1.07997C0.704257 1.42522 0.444976 1.83598 0.268036 2.28854C0.0910966 2.74112 0 3.22654 0 3.71681C0 4.20708 0.0910966 4.69251 0.268036 5.14508C0.444976 5.59764 0.704257 6.0084 1.03092 6.35365L16.9932 23.3632C17.3199 23.7084 17.5791 24.1192 17.7561 24.5717C17.933 25.0243 18.0241 25.5097 18.0241 26C18.0241 26.4903 17.933 26.9757 17.7561 27.4283C17.5791 27.8808 17.3199 28.2916 16.9932 28.6368L1.03092 45.6463C0.704257 45.9916 0.444976 46.4024 0.268036 46.8549C0.0910966 47.3075 0 47.7929 0 48.2832C0 48.7735 0.0910966 49.2589 0.268036 49.7115C0.444976 50.164 0.704257 50.5748 1.03092 50.92C1.68392 51.6117 2.56725 52 3.488 52C4.40874 52 5.29207 51.6117 5.94507 50.92L21.9422 33.8734C23.9002 31.7843 25 28.9525 25 26C25 23.0475 23.9002 20.2157 21.9422 18.1266L5.94507 1.07997C5.29207 0.38826 4.40874 0 3.488 0C2.56725 0 1.68392 0.38826 1.03092 1.07997Z" fill="#490973"/>
</svg>
