<svg width="17" height="17" viewBox="0 0 17 17" fill="none" xmlns="http://www.w3.org/2000/svg">
<path d="M12.75 6.42035C12.7501 6.13543 12.6938 5.85331 12.5844 5.59023C12.475 5.32716 12.3146 5.08833 12.1125 4.88752C11.6989 4.49287 11.1492 4.27268 10.5775 4.27268C10.0059 4.27268 9.45617 4.49287 9.04258 4.88752L0.637501 13.2947C0.253881 13.7061 0.0449389 14.2503 0.0547102 14.8127C0.0644815 15.375 0.292203 15.9117 0.689881 16.3094C1.08756 16.7072 1.62413 16.9351 2.18651 16.945C2.74889 16.9549 3.29315 16.746 3.70458 16.3625L12.1125 7.95531C12.3149 7.75429 12.4755 7.51512 12.5849 7.25166C12.6944 6.98819 12.7505 6.70564 12.75 6.42035ZM2.703 15.3623C2.55981 15.4988 2.36958 15.575 2.17175 15.575C1.97393 15.575 1.78369 15.4988 1.6405 15.3623C1.49984 15.2213 1.42084 15.0303 1.42084 14.8311C1.42084 14.6319 1.49984 14.4409 1.6405 14.2998L7.14354 8.7961L8.20958 9.86214L2.703 15.3623ZM11.1123 6.95302L9.20833 8.85772L8.14583 7.79168L10.0505 5.88768C10.1184 5.81012 10.2015 5.74732 10.2947 5.70318C10.3879 5.65904 10.4891 5.6345 10.5921 5.63108C10.6951 5.62766 10.7978 5.64543 10.8937 5.6833C10.9895 5.72116 11.0766 5.77831 11.1495 5.8512C11.2224 5.9241 11.2796 6.01118 11.3174 6.10706C11.3553 6.20294 11.3731 6.30558 11.3696 6.40861C11.3662 6.51163 11.3417 6.61286 11.2975 6.70602C11.2534 6.79918 11.1906 6.88228 11.113 6.95018L11.1123 6.95302ZM3.44463 2.02231L4.54254 1.70922L4.85563 0.611308C4.90606 0.435134 5.01249 0.280174 5.15882 0.16986C5.30515 0.0595464 5.48342 -0.00012207 5.66667 -0.00012207C5.84992 -0.00012207 6.02819 0.0595464 6.17451 0.16986C6.32084 0.280174 6.42727 0.435134 6.47771 0.611308L6.79079 1.70922L7.88871 2.02231C8.06488 2.07275 8.21984 2.17917 8.33016 2.3255C8.44047 2.47183 8.50014 2.6501 8.50014 2.83335C8.50014 3.0166 8.44047 3.19487 8.33016 3.3412C8.21984 3.48752 8.06488 3.59395 7.88871 3.64439L6.79079 3.95747L6.47771 5.05539C6.42727 5.23156 6.32084 5.38652 6.17451 5.49684C6.02819 5.60715 5.84992 5.66682 5.66667 5.66682C5.48342 5.66682 5.30515 5.60715 5.15882 5.49684C5.01249 5.38652 4.90606 5.23156 4.85563 5.05539L4.54254 3.95747L3.44463 3.64439C3.26845 3.59395 3.11349 3.48752 3.00318 3.3412C2.89286 3.19487 2.8332 3.0166 2.8332 2.83335C2.8332 2.6501 2.89286 2.47183 3.00318 2.3255C3.11349 2.17917 3.26845 2.07275 3.44463 2.02231ZM16.3887 12.1444L15.2908 12.4575L14.9777 13.5554C14.9273 13.7316 14.8208 13.8865 14.6745 13.9968C14.5282 14.1072 14.3499 14.1668 14.1667 14.1668C13.9834 14.1668 13.8051 14.1072 13.6588 13.9968C13.5125 13.8865 13.4061 13.7316 13.3556 13.5554L13.0425 12.4575L11.9446 12.1444C11.7685 12.094 11.6135 11.9875 11.5032 11.8412C11.3929 11.6949 11.3332 11.5166 11.3332 11.3333C11.3332 11.1501 11.3929 10.9718 11.5032 10.8255C11.6135 10.6792 11.7685 10.5727 11.9446 10.5223L13.0425 10.2092L13.3556 9.11131C13.4061 8.93513 13.5125 8.78017 13.6588 8.66986C13.8051 8.55955 13.9834 8.49988 14.1667 8.49988C14.3499 8.49988 14.5282 8.55955 14.6745 8.66986C14.8208 8.78017 14.9273 8.93513 14.9777 9.11131L15.2908 10.2092L16.3887 10.5223C16.5649 10.5727 16.7198 10.6792 16.8302 10.8255C16.9405 10.9718 17.0001 11.1501 17.0001 11.3333C17.0001 11.5166 16.9405 11.6949 16.8302 11.8412C16.7198 11.9875 16.5649 12.094 16.3887 12.1444ZM12.5765 1.77085L13.537 1.49672L13.8125 0.534808C13.8573 0.381678 13.9506 0.247204 14.0783 0.151538C14.206 0.055871 14.3613 0.00416341 14.5208 0.00416341C14.6804 0.00416341 14.8357 0.055871 14.9634 0.151538C15.0911 0.247204 15.1843 0.381678 15.2292 0.534808L15.5033 1.49531L16.4638 1.76943C16.6169 1.81428 16.7514 1.90754 16.8471 2.03524C16.9427 2.16294 16.9944 2.31821 16.9944 2.47777C16.9944 2.63733 16.9427 2.79259 16.8471 2.92029C16.7514 3.04799 16.6169 3.14125 16.4638 3.1861L15.5033 3.46022L15.2292 4.42285C15.1843 4.57598 15.0911 4.71045 14.9634 4.80612C14.8357 4.90179 14.6804 4.95349 14.5208 4.95349C14.3613 4.95349 14.206 4.90179 14.0783 4.80612C13.9506 4.71045 13.8573 4.57598 13.8125 4.42285L13.5384 3.46306L12.5765 3.18752C12.4233 3.14267 12.2889 3.04941 12.1932 2.92171C12.0975 2.79401 12.0458 2.63874 12.0458 2.47918C12.0458 2.31962 12.0975 2.16436 12.1932 2.03666C12.2889 1.90895 12.4233 1.81569 12.5765 1.77085Z" fill="#490973"/>
</svg>
