<svg width="25" height="52" viewBox="0 0 25 52" fill="none" xmlns="http://www.w3.org/2000/svg">
<path d="M23.9691 50.92C24.2957 50.5748 24.555 50.164 24.732 49.7115C24.9089 49.2589 25 48.7735 25 48.2832C25 47.7929 24.9089 47.3075 24.732 46.8549C24.555 46.4024 24.2957 45.9916 23.9691 45.6463L8.0068 28.6368C7.68013 28.2916 7.42085 27.8808 7.24391 27.4283C7.06697 26.9757 6.97587 26.4903 6.97587 26C6.97587 25.5097 7.06697 25.0243 7.24391 24.5717C7.42085 24.1192 7.68013 23.7084 8.0068 23.3632L23.9691 6.35365C24.2957 6.0084 24.555 5.59764 24.732 5.14507C24.9089 4.69251 25 4.20708 25 3.71681C25 3.22653 24.9089 2.74111 24.732 2.28854C24.555 1.83597 24.2957 1.42522 23.9691 1.07996C23.3161 0.388253 22.4327 0 21.512 0C20.5913 0 19.7079 0.388253 19.0549 1.07996L3.05779 18.1266C1.09979 20.2157 0 23.0475 0 26C0 28.9525 1.09979 31.7843 3.05779 33.8734L19.0549 50.92C19.7079 51.6117 20.5913 52 21.512 52C22.4327 52 23.3161 51.6117 23.9691 50.92Z" fill="#490973"/>
</svg>
